<?xml version="1.0" standalone="no"?>
<!DOCTYPE svg PUBLIC "-//W3C//DTD SVG 1.1//EN" "http://www.w3.org/Graphics/SVG/1.1/DTD/svg11.dtd" >
<svg xmlns="http://www.w3.org/2000/svg">
<metadata>Generated by IcoMoon</metadata>
<defs>
<font id="quiicons" horiz-adv-x="1024">
<font-face units-per-em="1024" ascent="896" descent="-128" />
<missing-glyph horiz-adv-x="1024" />
<glyph unicode="&#x20;" horiz-adv-x="0" d="" />
<glyph unicode="&#xe601;" glyph-name="close" horiz-adv-x="1045" d="M282.517 682.624l-45.354-45.163 252.309-253.461-252.31-253.461 45.355-45.163 252.096 253.27 252.096-253.27 45.355 45.163-252.288 253.44 252.288 253.481-45.355 45.163-252.096-253.248-252.096 253.227z" />
<glyph unicode="&#xe602;" glyph-name="noData" horiz-adv-x="1025" d="M512 239.484c189.935 0 375.742-82.581 499.613-231.226 20.645-24.774 16.516-57.806-4.129-78.452-8.258-8.258-20.645-12.387-33.032-12.387-16.516 0-33.032 8.258-41.29 20.645-194.065 231.226-540.903 256-768 61.935l-61.935-61.935c-8.258-12.387-24.774-20.645-41.29-20.645-12.387 0-24.774 4.129-33.032 12.387-20.645 12.387-28.903 28.903-28.903 41.29s4.129 28.903 12.387 37.161c123.871 148.645 309.677 231.226 499.613 231.226zM825.806 524.387c-49.548 0-90.839 41.29-90.839 94.968v136.258c0 49.548 41.29 94.968 90.839 94.968s94.968-41.29 94.968-90.839v-140.387c-4.129-53.677-45.419-94.968-94.968-94.968zM198.194 524.387c-49.548 0-90.839 41.29-90.839 90.839v140.387c0 49.548 41.29 90.839 90.839 90.839s90.839-41.29 90.839-90.839v-136.258c4.129-53.677-37.161-94.968-90.839-94.968z" />
<glyph unicode="&#xe603;" glyph-name="each-follow" d="M1012.185 431.262c7.877 27.569 11.815 51.2 11.815 78.769 0 70.892-23.631 141.785-66.954 196.923-43.323 51.2-118.154 118.154-240.246 118.154-114.215 0-196.923-63.015-204.8-66.954-7.877 7.877-82.708 66.954-204.8 66.954-110.277 0-189.046-51.2-240.246-118.154-43.323-59.077-66.954-126.031-66.954-196.923 0-31.508 7.877-78.769 11.815-86.646 70.892-196.923 362.338-401.723 456.862-468.677 0 0 15.754-11.815 39.385-11.815 19.692 0 39.385 11.815 39.385 11.815 94.523 63.015 389.908 263.877 460.8 464.738 0 3.938 0 3.938 3.938 11.815zM512 9.846c-122.092 78.769-370.215 263.877-433.231 429.292 0 3.938-3.938 3.938-3.938 7.877-7.877 19.692-11.815 43.323-11.815 63.015 0 63.015 23.631 126.031 70.892 173.292 27.569 23.631 55.138 43.323 86.646 55.138 3.938 0 19.692 7.877 23.631 7.877 19.692 7.877 43.323 11.815 70.892 11.815 63.015 0 126.031-23.631 173.292-70.892l23.631-23.631 23.631 23.631c47.262 43.323 110.277 70.892 173.292 70.892 74.831 0 133.908-27.569 177.231-74.831s70.892-110.277 70.892-173.292c0-19.692-3.938-39.385-7.877-59.077 0-3.938-3.938-7.877-3.938-11.815-63.015-165.415-311.138-350.523-433.231-429.292z" />
<glyph unicode="&#xe604;" glyph-name="back1" d="M767.716-38.4l-59.449-60.302-435.484 442.311c-21.902 22.471-21.902 58.311 0 80.782l435.484 442.596 59.449-60.302-415.858-422.684 415.858-422.4z" />
<glyph unicode="&#xe605;" glyph-name="close1" d="M512 896c-136.533 0-267.378-54.044-361.244-150.756-96.711-93.867-150.756-224.711-150.756-361.244s54.044-267.378 150.756-361.244c96.711-96.711 227.556-150.756 361.244-150.756 136.533 0 267.378 54.044 361.244 150.756 96.711 96.711 150.756 227.556 150.756 361.244 0 136.533-54.044 267.378-150.756 361.244-93.867 96.711-224.711 150.756-361.244 150.756zM292.978 136.533c-8.533 0-17.067 2.844-22.756 8.533s-8.533 14.222-8.533 22.756 2.844 17.067 8.533 22.756l196.267 190.578-196.267 190.578c-11.378 11.378-11.378 31.289 0 45.511 5.689 5.689 14.222 8.533 22.756 8.533s17.067-2.844 22.756-8.533l196.267-193.422 196.267 193.422c5.689 5.689 14.222 8.533 22.756 8.533s17.067-2.844 22.756-8.533c5.689-5.689 8.533-14.222 8.533-22.756s-2.844-17.067-8.533-22.756l-196.267-187.733 196.267-190.578c11.378-11.378 11.378-31.289 0-45.511-5.689-5.689-14.222-8.533-22.756-8.533s-17.067 2.844-22.756 8.533l-196.267 190.578-196.267-193.422c-5.689-2.844-14.222-8.533-22.756-8.533z" />
<glyph unicode="&#xe606;" glyph-name="message-n" horiz-adv-x="1139" d="M493.936-128c-10.972 0.919-20.725 5.515-28.165 12.536l0.023-0.021-106.283 109.416h-256.336c-0.328-0.004-0.716-0.006-1.105-0.006-56.372 0-102.070 45.698-102.070 102.070 0 0.381 0.002 0.762 0.006 1.142v-0.058 553.308c0.513 56.771 46.398 102.656 103.12 103.169h794.065c56.771-0.513 102.656-46.398 103.169-103.12v-556.491c0.004-0.328 0.006-0.716 0.006-1.105 0-56.372-45.698-102.070-102.070-102.070-0.388 0-0.776 0.002-1.164 0.006l0.059-0.001c-13.812 0-25.009 11.197-25.009 25.009s11.197 25.009 25.009 25.009v0c26.836 1.876 48.142 23.182 50.008 49.848l0.010 0.17v559.576c-1.876 26.836-23.182 48.142-49.848 50.008l-0.17 0.010h-794.016c-26.836-1.876-48.142-23.182-50.008-49.848l-0.010-0.17v-556.442c0.749-27.318 22.7-49.269 49.947-50.016l0.070-0.002h268.83c0.16 0.004 0.348 0.006 0.537 0.006 7.487 0 14.115-3.676 18.179-9.321l0.045-0.066 109.416-109.416 106.222 109.416c4.109 5.712 10.738 9.387 18.224 9.387 0.189 0 0.377-0.002 0.565-0.007l-0.028 0.001h100.035c13.812 0 25.009-11.197 25.009-25.009s-11.197-25.009-25.009-25.009v0h-90.594l-106.283-109.416c-9.351-7.54-21.299-12.203-34.326-12.493l-0.064-0.001zM315.74 381.558c0-29.355-23.797-53.151-53.151-53.151s-53.151 23.797-53.151 53.151c0 29.355 23.797 53.151 53.151 53.151v0c0.14 0.001 0.305 0.002 0.47 0.002 29.096 0 52.683-23.587 52.683-52.683 0-0.165-0.001-0.33-0.002-0.495v0.025M553.335 384.692c0-0.006 0-0.013 0-0.020 0-29.355-23.797-53.151-53.151-53.151s-53.151 23.797-53.151 53.151c0 29.355 23.797 53.151 53.151 53.151v0c28.996-0.876 52.275-24.156 53.15-53.069l0.002-0.082M790.929 381.538c0-29.355-23.797-53.151-53.151-53.151s-53.151 23.797-53.151 53.151c0 29.355 23.797 53.151 53.151 53.151v0c0.14 0.001 0.305 0.002 0.47 0.002 29.096 0 52.683-23.587 52.683-52.683 0-0.165-0.001-0.33-0.002-0.495v0.025M854.662 753.557c0-78.669 63.774-142.443 142.443-142.443s142.443 63.774 142.443 142.443v0c0 78.669-63.774 142.443-142.443 142.443s-142.443-63.774-142.443-142.443v0z" />
<glyph unicode="&#xe607;" glyph-name="fujian" d="M672.1 831.8c25.7 0 51.4-6.4 70.7-12.9 77.2-32.1 122.2-102.9 122.2-186.5 0-51.4-19.3-102.9-57.9-141.5l-360.1-366.5c-12.9-12.9-25.7-19.3-38.6-25.7s-25.7-6.4-45-6.4c-12.9 0-32.2 0-45 6.4-12.9 6.4-25.7 12.9-32.2 25.7-12.9 12.9-19.3 25.7-25.7 38.6s-6.4 32.1-6.4 45c0 32.2 12.9 64.3 32.2 83.6l328 340.8c6.4 6.4 19.3 12.9 25.7 12.9 12.9 0 25.7-6.4 32.2-12.9 6.4-6.4 12.9-19.3 12.9-25.7-6.4-12.9-6.4-19.3-12.9-32.2l-334.5-334.3c-6.4-6.4-12.9-19.3-12.9-32.2 0-19.3 19.3-38.6 38.6-38.6 12.9 0 19.3 6.4 25.7 12.9l360.1 366.5c25.7 25.7 32.1 51.4 32.1 83.6s-12.9 57.9-32.1 83.6c-19.3 25.7-45 38.6-77.2 38.6s-64.3-12.9-83.6-38.6l-360-366.5c-19.3-19.3-32.2-38.6-45-64.3-19.3-45-19.3-102.9 0-147.9 12.9-25.7 25.7-45 45-64.3 38.6-38.6 83.6-57.9 135-57.9s102.9 19.3 135 57.9l366.6 360.1c6.4 12.9 12.9 12.9 25.7 12.9 12.9 0 19.3-6.4 25.7-12.9 6.4-6.4 12.9-12.9 12.9-25.7s-6.4-19.3-12.9-25.7l-360.1-366.6c-25.7-25.7-57.9-45-90-64.3-32.2-12.9-64.3-19.3-102.9-19.3s-70.7 6.4-102.9 19.3-64.3 32.2-90 64.3c-25.7 25.7-45 57.9-57.9 90-12.8 32.2-19.2 70.8-19.2 102.9 0 38.6 6.4 70.7 19.3 109.3 12.9 32.2 32.2 64.3 57.9 90l360.1 366.5c38.5 38.7 89.9 58 141.4 58zM672.1 831.8" />
<glyph unicode="&#xe608;" glyph-name="home-icon" horiz-adv-x="1119" d="M1106.251 502.252l-527.691 387.801c-5.329 3.702-11.935 5.914-19.057 5.914s-13.729-2.212-19.168-5.987l0.111 0.073-527.915-387.801c-7.597-5.611-12.47-14.532-12.47-24.592 0-6.84 2.253-13.154 6.057-18.24l-0.057 0.080c5.679-7.576 14.638-12.426 24.729-12.426 6.85 0 13.177 2.234 18.294 6.014l-0.084-0.059 72.563 53.3v-553.275c0.422-44.759 36.71-80.903 81.485-81.091h221.597c4.909 0.097 9.515 1.302 13.608 3.374l-0.18-0.083c3.758 1.696 6.935 4.058 9.513 6.966l0.025 0.029c4.588 5.181 7.486 11.951 7.778 19.39l0.002 0.059v206.281c-0.072 0.816-0.113 1.764-0.113 2.723 0 18.075 14.653 32.728 32.728 32.728 0.737 0 1.469-0.024 2.194-0.072l-0.098 0.005h111.8c0.202 0.004 0.441 0.007 0.68 0.007 18.564 0 33.657-14.861 34.030-33.336l0.001-0.035v-209.909c0.454-7.59 3.715-14.341 8.749-19.297l0.004-0.004c5.637-5.319 13.204-8.646 21.546-8.827l0.035-0.001h250.979c44.793 0.188 81.081 36.332 81.502 81.051v551.819l70.468-51.767c5.023-3.754 11.356-6.011 18.216-6.011 16.902 0 30.604 13.702 30.604 30.604 0 10.042-4.837 18.955-12.308 24.535l-0.080 0.057M939.393-20.352c0-20.161-7.481-46.418-51.206-46.418h-190.198v192.18c-3.137 42.022-36.776 75.26-78.691 77.751l-0.231 0.011h-146.286c-42.146-2.502-75.784-35.74-78.905-77.483l-0.017-0.28v-192.18h-161.060c-43.725 0-51.206 26.183-51.206 46.418l0.449 571.229 377.366 277.199 379.423-278.769 0.449-569.658M939.281-20.352" />
<glyph unicode="&#xe609;" glyph-name="bianji" d="M326.163 326.875c-0.708-0.807-1.269-1.764-1.629-2.813l-0.018-0.059-50.997-193.092c-0.709-2.586-1.117-5.555-1.117-8.62 0-9.011 3.524-17.2 9.27-23.261l-0.014 0.015c5.696-5.816 13.629-9.422 22.404-9.422 0.007 0 0.014 0 0.022 0h-0.001c0.044 0 0.097 0 0.149 0 2.909 0 5.727 0.392 8.404 1.125l-0.223-0.052 185.757 52.299c0.287 0 0.44-0.23 0.689-0.23 0.014 0 0.030 0 0.046 0 2.243 0 4.266 0.94 5.696 2.448l0.003 0.003 496.565 512.383c14.14 14.904 22.837 35.094 22.837 57.315 0 0.452-0.004 0.903-0.011 1.353l0.001-0.068c-0.253 27.339-11.253 52.061-28.974 70.185l0.019-0.019-46.937 48.603c-17.165 18.061-41.223 29.429-67.94 29.873l-0.082 0.001c-0.244 0.003-0.532 0.004-0.82 0.004-21.929 0-41.753-9.017-55.965-23.545l-0.014-0.014-496.393-512.632c-0.536-0.479-0.364-1.206-0.747-1.762M952.586 707.83l-49.312-50.863-79.971 83.82 48.527 50.193c3.888 3.269 8.949 5.256 14.474 5.256 6.723 0 12.759-2.941 16.892-7.607l0.021-0.024 46.918-48.469c4.639-4.757 7.539-11.23 7.66-18.38v-0.023c0.004-0.149 0.006-0.325 0.006-0.501 0-5.194-2.029-9.915-5.339-13.411l0.008 0.009M414.35 318.832l358.32 369.791 80.010-83.878-357.573-369.082zM349.048 168.886l25.929 98.107 69.075-71.296zM956.799 504.78c-19.454-0.276-35.152-15.974-35.428-35.402v-479.49c0.002-0.165 0.004-0.36 0.004-0.556 0-24.252-19.66-43.911-43.911-43.911-0.048 0-0.097 0-0.145 0h-763.684c-23.459 0.097-42.439 19.136-42.439 42.609 0 0.653 0.015 1.303 0.044 1.95l-0.003-0.092v789.084c-0.028 0.572-0.044 1.242-0.044 1.916 0 23.268 18.862 42.13 42.13 42.13 0.11 0 0.219 0 0.328-0.001h524.105c19.144 1.063 34.265 16.846 34.265 36.161 0 0.207-0.002 0.414-0.005 0.62v-0.031c0.003 0.179 0.005 0.39 0.005 0.602 0 19.203-15.18 34.861-34.195 35.628l-0.070 0.002h-529.35c-60.158-1.392-108.393-50.489-108.393-110.852 0-0.286 0.001-0.571 0.003-0.857v0.044-799.828c-0.003-0.281-0.004-0.614-0.004-0.946 0-60.509 48.153-109.772 108.23-111.557l0.165-0.004h774.128c60.875 1.666 109.593 51.391 109.635 112.503v485.079c-0.34 19.361-15.995 34.955-35.347 35.198h-0.023" />
<glyph unicode="&#xe60a;" glyph-name="fufei" d="M686.684 364.539c0.305-0.010 0.665-0.015 1.025-0.015 19.287 0 34.922 15.635 34.922 34.922s-15.635 34.922-34.922 34.922c-0.361 0-0.72-0.005-1.078-0.016l0.052 0.001h-87.788l95.645 142.008c6.454 6.337 10.455 15.154 10.455 24.905 0 19.271-15.622 34.892-34.892 34.892-9.751 0-18.569-4-24.9-10.449l-0.005-0.005-129.303-174.612c-0.854-1.15-2.207-1.887-3.733-1.887s-2.879 0.737-3.724 1.874l-0.009 0.012-129.303 174.612c-6.337 6.454-15.154 10.455-24.905 10.455-19.271 0-34.892-15.622-34.892-34.892 0-9.751 4-18.569 10.449-24.9l0.005-0.005 95.645-142.158h-87.728c-0.305 0.010-0.665 0.015-1.025 0.015-19.287 0-34.922-15.635-34.922-34.922s15.635-34.922 34.922-34.922c0.361 0 0.72 0.005 1.078 0.016l-0.052-0.001h139.6v-69.785h-139.6c-0.305 0.010-0.665 0.015-1.025 0.015-19.287 0-34.922-15.635-34.922-34.922s15.635-34.922 34.922-34.922c0.361 0 0.72 0.005 1.078 0.016l-0.052-0.001h139.6v-81.285c0-19.271 15.622-34.892 34.892-34.892s34.892 15.622 34.892 34.892v0 81.285h139.6c0.305-0.010 0.665-0.015 1.025-0.015 19.287 0 34.922 15.635 34.922 34.922s-15.635 34.922-34.922 34.922c-0.361 0-0.72-0.005-1.078-0.016l0.052 0.001h-139.63v69.935h139.6zM1020.585 443.446c-30.773 256.038-246.694 452.576-508.518 452.576-282.756 0-511.975-229.219-511.975-511.975s229.219-511.975 511.975-511.975c162.023 0 306.467 75.263 400.279 192.734l0.792 1.027c4.683 5.914 7.512 13.483 7.512 21.712 0 12.96-7.018 24.282-17.46 30.371l-0.167 0.090c-5.015 2.99-11.059 4.758-17.517 4.758-10.859 0-20.551-5-26.899-12.823l-0.051-0.064c-82.113-103.434-207.842-169.175-348.925-169.175-245.446 0-444.418 198.973-444.418 444.418s198.973 444.418 444.418 444.418c245.446 0 444.418-198.973 444.418-444.418 0-59.002-11.498-115.319-32.376-166.832l1.067 2.979c-1.53-3.768-2.418-8.139-2.418-12.718 0-12.817 6.959-24.009 17.305-30.004l0.166-0.089c5.067-2.969 11.158-4.723 17.658-4.723 14.818 0 27.508 9.111 32.774 22.038l0.085 0.237c22.597 55.719 35.709 120.35 35.709 188.043 0 20.887-1.248 41.483-3.675 61.716l0.238-2.442z" />
<glyph unicode="&#xe60b;" glyph-name="jinghua" horiz-adv-x="1178" d="M388.559 315.154c-21.6 0-39.111 17.511-39.111 39.111 0 10.8 4.378 20.578 11.455 27.656l156.029 155.896c18.443 18.3 43.846 29.609 71.89 29.609s53.447-11.309 71.896-29.615l156.022-155.889c6.803-7.031 10.995-16.623 10.995-27.195 0-21.611-17.519-39.13-39.13-39.13-10.572 0-20.165 4.192-27.206 11.005l0.011-0.010-155.896 155.896c-4.24 4.233-10.094 6.85-16.559 6.85s-12.319-2.617-16.56-6.851l-156.18-155.896c-7.041-7.065-16.782-11.437-27.543-11.437-0.040 0-0.079 0-0.119 0h0.006zM589.162-127.98c-0.143-0.001-0.312-0.001-0.481-0.001-28.594 0-53.983 13.721-69.943 34.938l-0.161 0.224-509.258 673.339c-5.81 7.546-9.311 17.132-9.311 27.535 0 8.882 2.552 17.168 6.964 24.165l-0.11-0.187 149.488 242.304c8.114 13.082 22.396 21.664 38.683 21.664 0.104 0 0.208 0 0.312-0.001h788.105c0.010 0 0.021 0 0.032 0 16.363 0 30.723-8.573 38.835-21.473l0.112-0.19 149.488-242.304c4.304-6.835 6.857-15.148 6.857-24.058 0-10.357-3.45-19.908-9.264-27.567l0.082 0.113-509.674-673.339c-16.385-21.448-41.969-35.148-70.754-35.16h-0.002zM72.948 609.253l499.863-661.071c3.704-4.988 9.576-8.186 16.195-8.186 0.055 0 0.11 0 0.165 0.001h-0.008c0.027 0 0.059 0 0.091 0 6.606 0 12.482 3.129 16.225 7.986l0.035 0.048 500.411 661.071-134.781 218.58h-763.414z" />
<glyph unicode="&#xe60c;" glyph-name="jubao" horiz-adv-x="1063" d="M1023.884-49.244h-177.22v393.799c-0.010 173.986-141.056 315.025-315.043 315.025s-315.032-141.039-315.043-315.024v-393.8h-177.201c-21.748 0-39.378-17.63-39.378-39.378s17.63-39.378 39.378-39.378v0h984.448c21.748 0 39.378 17.63 39.378 39.378s-17.63 39.378-39.378 39.378v0zM295.354-49.244v393.799c0 130.498 105.789 236.287 236.287 236.287s236.287-105.789 236.287-236.287v0-393.799zM413.488 344.554c-21.721-0.066-39.312-17.657-39.378-39.372v-236.293c0-21.748 17.63-39.378 39.378-39.378s39.378 17.63 39.378 39.378v0 236.287c-0.066 21.721-17.657 39.312-39.372 39.378h-0.006zM531.621 738.353c21.721 0.066 39.312 17.657 39.378 39.372v78.781c0 21.748-17.63 39.378-39.378 39.378s-39.378-17.63-39.378-39.378v0-78.756c0.055-21.736 17.661-39.342 39.392-39.397h0.005zM830.921 657.624l55.141 55.141c6.954 7.039 11.25 16.717 11.25 27.4 0 21.534-17.457 38.991-38.991 38.991-10.682 0-20.361-4.296-27.404-11.254l-55.137-55.137c-6.954-7.039-11.25-16.717-11.25-27.4 0-21.534 17.457-38.991 38.991-38.991 10.682 0 20.361 4.296 27.404 11.254l-0.004-0.004zM240.213 657.624c7.039-6.954 16.717-11.25 27.4-11.25 21.534 0 38.991 17.457 38.991 38.991 0 10.682-4.296 20.361-11.254 27.404l-55.137 55.137c-7.039 6.954-16.717 11.25-27.4 11.25-21.534 0-38.991-17.457-38.991-38.991 0-10.682 4.296-20.361 11.254-27.404l-0.004 0.004zM39.378 403.621h78.756c21.748 0 39.378 17.63 39.378 39.378s-17.63 39.378-39.378 39.378h-78.756c-21.748 0-39.378-17.63-39.378-39.378s17.63-39.378 39.378-39.378v0zM945.128 403.621h78.756c21.748 0 39.378 17.63 39.378 39.378s-17.63 39.378-39.378 39.378h-78.756c-21.748 0-39.378-17.63-39.378-39.378s17.63-39.378 39.378-39.378v0z" />
<glyph unicode="&#xe60d;" glyph-name="shanchu" horiz-adv-x="1026" d="M461.265 379.271c-146.885 149.218-289.106 289.106-428.994 428.994-34.967 34.967-41.984 55.959-18.66 76.932 20.992 18.66 39.651 13.995 74.619-20.973 132.891-132.891 263.449-265.782 396.34-396.32 10.24-11.779 20.198-24.701 29.379-38.195l0.923-1.437c18.66 25.637 32.635 41.964 46.649 58.311 125.874 125.835 251.787 254.061 380.013 379.954 9.33 9.33 16.327 20.992 25.637 23.324 16.327 4.665 39.632 6.997 46.649-2.332 4.519-8.929 7.167-19.466 7.167-30.621 0-6.527-0.906-12.842-2.6-18.827l0.118 0.486c0-9.33-13.995-16.327-20.992-23.324-144.553-144.553-284.441-286.773-428.975-431.307 20.992-23.324 41.964-44.297 62.956-65.289 121.229-121.229 242.477-242.477 366.038-363.705l9.33-9.33c18.66-18.66 30.302-39.632 6.997-60.624-23.324-23.324-44.297-11.662-65.289 6.997l-401.044 400.985c-11.662 11.662-18.66 23.324-30.302 37.3-16.327-16.327-27.97-25.637-37.3-34.987-132.91-132.832-265.801-265.723-401.024-398.614-6.997-6.997-13.995-16.327-20.992-18.66-4.891-1.143-10.508-1.798-16.277-1.798-10.998 0-21.44 2.38-30.839 6.653l0.468-0.19c-9.33 9.33-6.997 32.635-4.665 46.649 2.332 9.33 13.995 18.66 23.324 25.637l396.359 396.32c10.512 9.542 21.919 18.721 33.854 27.206l1.132 0.764z" />
<glyph unicode="&#xe60e;" glyph-name="quxiaojinghua" horiz-adv-x="1163" d="M1031.701-117.073l-231.444 231.444-149.174-197.041c-16.17-21.155-41.416-34.664-69.817-34.664-0.032 0-0.063 0-0.095 0h0.005c-0.151-0.001-0.329-0.001-0.507-0.001-28.192 0-53.224 13.527-68.961 34.445l-0.159 0.221-502.345 664.199c-5.741 7.448-9.201 16.911-9.201 27.183 0 8.76 2.517 16.933 6.867 23.833l-0.109-0.185 105.131 170.357-29.555 29.555c-6.752 6.749-10.928 16.075-10.928 26.376s4.176 19.627 10.928 26.376v0c6.749 6.752 16.075 10.928 26.376 10.928s19.627-4.176 26.376-10.928l17.062-17.062 2.107 3.412c8.004 12.904 22.092 21.37 38.158 21.37 0.096 0 0.192 0 0.288-0.001h777.557c0.004 0 0.009 0 0.013 0 16.141 0 30.306-8.457 38.308-21.181l0.11-0.188 147.459-238.996c4.252-6.748 6.775-14.957 6.775-23.754 0-10.214-3.4-19.634-9.131-27.189l0.081 0.112-308.157-407.116 238.679-238.679c6.752-6.749 10.928-16.075 10.928-26.376s-4.176-19.627-10.928-26.376v0c-6.732-6.751-16.042-10.927-26.328-10.927-0.014 0-0.027 0-0.041 0h0.002c-0.009 0-0.019 0-0.030 0-10.263 0-19.558 4.146-26.301 10.854l0.002-0.002zM72.006 609.891l493.078-652.097c3.661-4.91 9.453-8.056 15.98-8.056 0.052 0 0.105 0 0.157 0.001h-0.008c0.027 0 0.058 0 0.090 0 6.522 0 12.324 3.086 16.024 7.878l0.035 0.047 154.936 204.686-255.126 255.126-86.521-86.391c-6.948-6.98-16.563-11.3-27.188-11.3-0.033 0-0.065 0-0.098 0h0.005c-0.034 0-0.075 0-0.116 0-10.617 0-20.225 4.32-27.163 11.298l-0.002 0.002c-6.983 6.985-11.301 16.633-11.301 27.29s4.319 20.305 11.302 27.29l86.484 86.428-281.735 281.735zM797.74 222.392l293.221 387.369-132.952 215.613h-753.051l-3.879-6.303 294.247-294.265 14.656 14.638c18.193 18.051 43.251 29.207 70.914 29.207s52.721-11.155 70.92-29.213l-0.007 0.006 153.911-153.799c6.978-6.987 11.294-16.634 11.294-27.29s-4.316-20.303-11.294-27.29v0c-6.989-6.974-16.636-11.286-27.29-11.286s-20.301 4.312-27.29 11.287l-153.779 153.798c-4.187 4.166-9.96 6.742-16.335 6.742s-12.148-2.576-16.336-6.743l0.001 0.001-14.731-14.694z" />
<glyph unicode="&#xe60f;" glyph-name="zhiding" d="M891.26 289.187c-10.418 0.096-19.805 4.434-26.533 11.366l-352.718 352.718-352.709-352.709c-6.756-6.575-15.994-10.629-26.179-10.629-20.74 0-37.554 16.813-37.554 37.554 0 10.185 4.055 19.423 10.638 26.188l379.166 379.166c6.69 7.020 16.111 11.385 26.552 11.385s19.862-4.365 26.538-11.37l0.014-0.015 379.174-379.174c7.020-6.69 11.385-16.111 11.385-26.552s-4.365-19.862-11.37-26.538l-0.015-0.014c-6.702-6.906-16.027-11.235-26.363-11.375h-0.026zM512.086-128c-20.915 0.065-37.852 17.002-37.917 37.911v758.527c0 20.946 16.98 37.927 37.927 37.927s37.927-16.98 37.927-37.927v0-758.521c-0.065-20.949-17.057-37.907-38.012-37.917h-0.001zM891.26 820.146h-758.521c-20.946 0-37.927 16.98-37.927 37.927s16.98 37.927 37.927 37.927h758.521c20.946 0 37.927-16.98 37.927-37.927s-16.98-37.927-37.927-37.927v0z" />
<glyph unicode="&#xe610;" glyph-name="quxiaozhiding" d="M861.461 286.194c-9.848 0.091-18.721 4.191-25.081 10.744l-333.414 333.414-333.405-333.405c-6.387-6.215-15.119-10.048-24.747-10.048-19.605 0-35.498 15.893-35.498 35.498 0 9.628 3.833 18.36 10.055 24.755l358.414 358.414c6.324 6.636 15.229 10.762 25.099 10.762s18.775-4.126 25.085-10.748l0.013-0.014 358.422-358.422c6.636-6.324 10.762-15.229 10.762-25.099s-4.126-18.775-10.748-25.085l-0.014-0.013c-6.335-6.528-15.149-10.62-24.92-10.752h-0.025zM503.039-108.16c-19.77 0.062-35.781 16.072-35.842 35.836v717.012c0 19.8 16.051 35.851 35.851 35.851s35.851-16.051 35.851-35.851v0-717.006c-0.062-19.802-16.124-35.832-35.932-35.842h-0.001zM861.461 788.093h-717.006c-19.8 0-35.851 16.051-35.851 35.851s16.051 35.851 35.851 35.851h717.006c19.8 0 35.851-16.051 35.851-35.851s-16.051-35.851-35.851-35.851v0zM25.603 870.403v0q25.6 25.6 51.2 0l921.609-921.609q25.6-25.6 0-51.2v0q-25.6-25.6-51.2 0l-921.609 921.609q-25.6 25.6 0 51.2z" />
<glyph unicode="&#xe611;" glyph-name="gengduo" d="M851.2 543.1c62.3 0 112.9-50.6 112.9-112.9s-50.6-112.9-112.9-112.9c-62.3 0-112.9 50.6-112.9 112.9s50.6 112.9 112.9 112.9zM512.6 543.1c62.3 0 112.9-50.6 112.9-112.9s-50.6-112.9-112.9-112.9c-62.3 0-112.9 50.6-112.9 112.9s50.6 112.9 112.9 112.9zM173.8 543.1c62.3 0 112.9-50.6 112.9-112.9s-50.6-112.9-112.9-112.9c-62.3 0-112.9 50.6-112.9 112.9s50.8 112.9 112.9 112.9zM173.8 543.1" />
<glyph unicode="&#xe612;" glyph-name="weizhi" d="M911.45 497.3c-1.050 218.667-178.556 395.525-397.37 395.525-217.872 0-394.792-175.34-397.346-392.607l-0.002-0.241c-0.16-3.545-0.251-7.702-0.251-11.881 0-21.511 2.415-42.458 6.988-62.585l-0.36 1.885c4.042-22.564 9.256-42.185 15.879-61.143l-0.84 2.76c35.343-110.962 128.047-285.992 368.92-489.777 5.282-4.49 12.181-7.221 19.717-7.221 8.031 0 15.338 3.101 20.788 8.17l-0.019-0.017c249.055 230.947 330.539 418.099 355.113 534.234l1.323 6.798c4.756 21.703 7.481 46.632 7.481 72.198 0 1.361-0.008 2.72-0.023 4.078l0.002-0.206zM843.592 430.675l-0.722-3.7c-18.047-85.665-83.349-260.545-316.973-483.34-214.464 186.49-297.602 343.804-329.697 444.568-5.020 13.996-9.525 30.918-12.686 48.308l-0.308 2.044c-3.55 15.475-5.584 33.246-5.584 51.492 0 2.55 0.040 5.091 0.119 7.622l-0.009-0.37c0.565 185.331 150.935 335.353 336.344 335.353 185.758 0 336.345-150.587 336.345-336.345 0-0.349-0.001-0.698-0.002-1.047v0.054c0.001-0.256 0.001-0.558 0.001-0.86 0-22.596-2.488-44.61-7.204-65.785l0.375 2.005zM513.955 663.787c-102.481 0-185.558-83.077-185.558-185.558s83.077-185.558 185.558-185.558c102.481 0 185.558 83.077 185.558 185.558v0c-0.12 102.432-83.125 185.438-185.546 185.558h-0.011zM513.955 353.762c-68.741 0-124.467 55.726-124.467 124.467s55.726 124.467 124.467 124.467c68.741 0 124.467-55.726 124.467-124.467v0c-0.086-68.707-55.76-124.382-124.459-124.467h-0.008z" />
<glyph unicode="&#xe613;" glyph-name="wenda" d="M683.714 65.808h275.293v766.386h-894.051v-766.386h276.255l170.761-122.604zM64.956 896h894.051c35.269 0 63.86-28.591 63.86-63.86v-766.386c0-35.269-28.591-63.86-63.86-63.86v0h-254.868l-173.631-123.958c-5.158-3.727-11.608-5.961-18.58-5.961s-13.423 2.234-18.674 6.025l0.094-0.065-172.686 124.012h-255.706c-35.269 0-63.86 28.591-63.86 63.86v0 766.386c0.030 35.246 28.61 63.806 63.86 63.806v0zM511.973 193.545c0.005 0 0.011 0 0.018 0 17.639 0 31.939-14.299 31.939-31.939s-14.299-31.939-31.939-31.939c-17.639 0-31.939 14.299-31.939 31.939 0 0.031 0 0.063 0 0.094v-0.005c0.051 17.595 14.321 31.84 31.92 31.85h0.001zM544.802 272.411c0.006-0.225 0.009-0.489 0.009-0.754 0-17.639-14.299-31.939-31.939-31.939s-31.939 14.299-31.939 31.939c0 0.265 0.003 0.53 0.010 0.794l-0.001-0.039c0 61.632 25.736 104.674 75.035 120.501 49.294 18.45 83.75 65.157 83.75 119.912 0 70.537-57.182 127.719-127.719 127.719s-127.719-57.182-127.719-127.719c0-0.006 0-0.012 0-0.018v0.001c-0.422-17.312-14.556-31.184-31.93-31.184s-31.508 13.873-31.929 31.145l-0.001 0.039c0.009 105.799 85.778 191.562 191.579 191.562 105.806 0 191.579-85.773 191.579-191.579 0-82.576-52.244-152.95-125.481-179.871l-1.329-0.427c-21.655-6.969-31.939-24.275-31.939-60.028z" />
<glyph unicode="&#xe614;" glyph-name="luyin" d="M829.44 398.336c-19.968 2.048-37.888-12.8-41.472-32.256-7.168-61.44-34.304-117.248-79.36-162.304-52.224-52.224-120.832-80.896-194.56-80.896s-142.336 28.672-194.56 80.896c-45.056 45.056-72.192 100.864-79.36 162.304-2.048 19.968-19.968 34.304-41.472 32.256-19.968-2.048-34.304-19.968-32.256-41.472 3.584-37.888 14.336-75.776 32.256-110.080 16.384-34.304 39.424-66.56 66.56-93.696 55.808-55.808 125.952-90.112 203.776-99.328v-115.2c0-23.552 17.92-41.472 41.472-41.472s41.472 17.92 41.472 41.472v115.2c77.312 9.216 147.968 43.008 203.776 99.328 27.136 27.136 50.688 59.392 66.56 93.696 16.384 34.304 27.136 72.192 32.256 110.080 9.216 21.504-5.12 39.936-25.088 41.472zM516.096 175.104c61.44 0 117.248 23.552 160.256 66.56s66.56 99.328 66.56 160.256v241.664c0 61.44-23.552 117.248-66.56 160.256s-99.328 66.56-160.256 66.56-117.248-23.552-160.256-66.56-66.56-99.328-66.56-160.256v-243.2c0-61.44 23.552-117.248 66.56-160.256 43.008-41.472 98.816-65.024 160.256-65.024zM363.008 643.584c0 84.48 68.608 153.088 153.088 153.088s153.088-68.608 153.088-153.088v-243.2c0-84.48-68.608-153.088-153.088-153.088s-153.088 68.608-153.088 153.088v243.2z" />
<glyph unicode="&#xe615;" glyph-name="yihuida" horiz-adv-x="1026" d="M512.478-81.337c-256.115 0.207-463.656 207.877-463.656 464.020 0 256.271 207.749 464.020 464.020 464.020s464.020-207.749 464.020-464.020c0-213.942-144.787-394.066-341.72-447.734l-3.253-0.755c-35.706-9.863-76.706-15.531-119.029-15.531-0.134 0-0.268 0-0.402 0h0.021zM513.006 839.637c-0.076 0-0.166 0-0.255 0-252.396 0-457.004-204.608-457.004-457.004s204.608-457.004 457.004-457.004c252.283 0 456.819 204.423 457.004 456.662v0.018c-0.093 42.112-5.755 82.862-16.288 121.605l0.757-3.267c-53.972 196.575-230.971 338.653-441.191 338.887h-0.027zM217.936 437.995l-6.965 1.601c27.865 144.038 152.956 251.326 303.105 251.326 93.21 0 176.763-41.346 233.319-106.697l0.329-0.389-5.364-4.819c-55.507 64.577-137.286 105.223-228.559 105.223-146.848 0-269.121-105.213-295.551-244.368l-0.296-1.876zM251.228 448.673l-6.42 1.703c25.44 99.547 99.507 177.406 194.775 207.736l2.070 0.569c20.368 5.288 43.75 8.323 67.842 8.323 79.692 0 151.625-33.216 202.712-86.558l0.097-0.101-4.819-5.007c-49.956 52.261-120.219 84.749-198.071 84.749-23.5 0-46.308-2.96-68.072-8.528l1.896 0.411c-94.989-30.128-167.259-106.134-191.58-201.326l-0.427-1.973zM517.57 93.063c-79.807 0.758-151.699 34.022-203.192 87.167l-0.072 0.075 4.819 5.007c49.956-52.261 120.219-84.749 198.071-84.749 23.5 0 46.308 2.96 68.072 8.528l-1.896-0.411c95.063 30.265 167.44 106.213 192.131 201.376l0.438 1.991 6.42-1.703c-25.419-99.575-99.492-177.463-194.775-207.804l-2.070-0.569c-20.343-5.498-43.73-8.737-67.846-8.906l-0.102-0.001zM515.441 72.287c-93.923 0.422-178.183 41.439-236.199 106.397l-0.272 0.31 5.364 4.819c55.605-64.523 137.432-105.123 228.74-105.123 146.736 0 268.983 104.851 295.905 243.719l0.306 1.898 6.965-1.618c-24.392-116.247-110.010-207.75-220.851-240.202l-2.236-0.561c-23.322-6.088-50.104-9.601-77.7-9.639h-0.023zM513.636-127.997c-0.487-0.002-1.063-0.003-1.639-0.003-282.756 0-511.975 229.219-511.975 511.975s229.219 511.975 511.975 511.975c282.756 0 511.975-229.219 511.975-511.975 0-235.313-158.752-433.548-374.998-493.446l-3.598-0.85c-39.409-11.223-84.67-17.677-131.438-17.677-0.107 0-0.213 0-0.32 0h0.017zM514.181 879.315c-46.112-0.061-90.739-6.309-133.129-17.96l3.535 0.828c-211.915-58.698-364.906-249.844-364.906-476.724 0-272.749 221.107-493.856 493.856-493.856s493.856 221.107 493.856 493.856c0 272.522-220.739 493.488-493.176 493.855h-0.035zM148.438 153.024c-33.735-9.111-54.614 2.146-63.179 33.242l-38.010 141.021 33.735 9.111 9.639-36.46 158.494 42.897-19.277 70.247-199.245-53.626-8.038 30.568 232.368 62.737 35.404-130.327-191.156-51.48 18.205-67.028c0.612-12.999 11.3-23.305 24.395-23.305 4.205 0 8.161 1.063 11.615 2.934l-0.129-0.064 121.012 32.714c16.621 0.742 29.816 14.398 29.816 31.135 0 1.693-0.135 3.355-0.395 4.976l0.024-0.178c-1.148 5.058-1.918 10.954-2.141 16.99l-0.005 0.176c-0.998 5.102-2.131 12.602-3.041 20.17l-0.178 1.815c7.493-0.528 18.205-0.528 31.59-0.528 0.548-0.266 1.193-0.421 1.873-0.421s1.325 0.155 1.899 0.433l-0.026-0.011c2.146-17.166 3.746-32.169 4.819-45.571 2.674-27.877-12.312-45.571-44.975-52.553zM388.316 205.577l-71.217 264.332 256.464 69.702 71.217-264.349-31.59-8.515-4.819 18.732-193.285-52.553 4.819-18.732zM356.181 450.155l51.94-192.434 193.285 52.553-51.94 192.434zM433.291 308.588l-30.517 112.599 122.085 33.242 30.517-112.599zM438.11 402.966l16.059-60.063 64.252 17.694-16.059 60.063zM644.167 474.285c-7.51 6.028-15.913 11.709-24.766 16.685l-0.931 0.481c16.261 24.492 27.188 53.859 30.448 85.501l0.069 0.822 32.663 4.819c-1.073-8.515-2.674-17.166-4.291-25.204l73.891 19.839 6.965-25.732-88.877-24.131c-7.046-20.356-15.522-37.917-25.734-54.283l0.65 1.117zM660.226 390.108c-2.674 2.674-5.347 5.892-9.111 10.218-4.581 4.421-8.795 9.147-12.636 14.173l-0.222 0.302c46.586 27.429 84.75 64.45 112.705 108.578l0.797 1.347 29.989 5.364c-1.556 0.703-3.51 1.432-5.515 2.046l-0.377 0.099c-5.927 2.298-12.815 3.996-19.977 4.786l-0.374 0.033c12.002 21.88 20.044 47.568 22.444 74.874l0.052 0.737 31.59 4.819c-1.073-8.515-2.674-17.166-4.291-25.204l80.856 21.985 6.965-25.732-94.769-25.732c-3.219-9.111-7.493-19.839-11.784-31.096l2.146 0.528-4.819-10.218c34.753-16.445 75.501-26.046 118.492-26.046 7.671 0 15.271 0.306 22.789 0.906l-0.991-0.064c-0.528-3.746-1.601-8.515-2.146-14.475-1.482-5.177-2.793-11.52-3.666-18.003l-0.080-0.73c-25.894 0.073-50.979 3.392-74.915 9.57l2.097-0.459 4.819-17.694-128.913-34.979-4.291 15.020c-16.672-14.386-35.161-29.152-54.197-43.222l-2.579-1.821zM708.42 486.632c-9.394 8.621-19.716 16.572-30.691 23.593l-0.899 0.538 18.732 20.435c8.193-4.777 15.19-9.559 21.825-14.78l-0.402 0.305c4.12-2.312 7.62-4.616 10.947-7.136l-0.236 0.171zM719.131 294.198l-26.157 96.353 197.031 53.081 26.242-96.523-31.59-8.515-4.274 15.020-133.852-36.46 4.291-15.020-31.59-8.038zM771.599 500.102c-13.406-19.455-27.846-36.469-43.81-51.92l-0.092-0.089 104.408 28.422c-22.869 5.425-43.016 13.481-61.561 24.030l1.141-0.597zM731.444 373.028l8.515-31.641 133.852 35.932-8.515 31.641zM849.237 524.778c-8.99 7.278-19.796 15.548-30.807 23.553l-2.384 1.651 18.205 20.435c4.291-3.219 10.712-7.51 18.732-13.947 5.822-3.301 10.716-6.494 15.405-9.95l-0.419 0.295z" />
<glyph unicode="&#xe616;" glyph-name="faxian" horiz-adv-x="1026" d="M513.069-128h-34.205c-49.169 2.138-98.338 12.827-143.232 29.929-136.818 49.169-245.846 156.058-299.29 292.877-19.24 47.031-29.929 96.2-34.205 147.507 0 8.551-2.138 17.102-2.138 23.516v42.756c0 8.551 2.138 14.965 2.138 23.516 2.138 17.102 4.276 36.342 6.413 55.582 14.965 79.098 51.307 153.921 102.614 215.916 53.445 68.409 126.129 121.854 205.228 153.921 49.169 19.24 100.476 32.067 153.921 36.342h66.271c47.031-2.138 91.925-10.689 136.818-25.653 194.539-64.134 333.495-237.294 350.597-442.522 4.276-49.169 2.138-98.338-8.551-145.37-47.031-237.294-258.672-408.317-502.38-408.317zM66.271 370.104c0-6.413 2.138-14.965 2.138-21.378 2.138-42.756 12.827-85.511 29.929-126.129 47.031-119.716 143.232-211.641 262.948-256.534 40.618-14.965 81.236-23.516 123.992-25.653 168.885-10.689 329.219 72.685 414.731 220.192 25.653 42.756 42.756 89.787 53.445 138.956 8.551 42.756 10.689 85.511 6.413 126.129-19.24 224.468-200.952 397.628-425.42 406.18h-53.445c-44.894-4.276-91.925-14.965-132.543-32.067-70.547-27.791-132.543-74.823-179.574-134.681-44.894-55.582-74.823-119.716-89.787-188.125-2.138-14.965-4.276-32.067-6.413-49.169 0-8.551-2.138-17.102-2.138-25.653v-4.276l-4.276-27.791zM282.188 92.192c-34.205 0-61.996 27.791-61.996 64.134 0 8.551 2.138 17.102 6.413 25.653l25.653 57.72c6.413 12.827 12.827 27.791 19.24 40.618l14.965 34.205c27.791 59.858 55.582 119.716 81.236 179.574 6.413 17.102 21.378 29.929 36.342 36.342 100.476 44.894 203.090 91.925 303.566 136.818l8.551 4.276c17.102 8.551 38.48 8.551 55.582 0s27.791-23.516 32.067-40.618c2.138-14.965 0-29.929-6.413-42.756l-128.267-282.188c-2.138-4.276-4.276-8.551-4.276-10.689-2.138-6.413-6.413-12.827-8.551-19.24-6.413-14.965-19.24-27.791-34.205-34.205-51.307-23.516-104.752-47.031-158.196-70.547s-104.752-47.031-158.196-70.547c-4.276-2.138-8.551-4.276-14.965-4.276h-2.138c0-4.276-4.276-4.276-6.413-4.276zM431.833 470.58c-2.138 0-4.276-2.138-4.276-4.276-27.791-59.858-55.582-121.854-81.236-179.574l-14.965-34.205c-6.413-12.827-12.827-27.791-19.24-40.618-6.413-14.965-14.965-32.067-21.378-47.031 49.169 23.516 100.476 44.894 149.645 68.409 51.307 23.516 104.752 47.031 158.196 70.547 2.138 6.413 6.413 12.827 8.551 19.24 2.138 4.276 4.276 6.413 4.276 10.689l32.067 70.547c29.929 66.271 61.996 136.818 94.063 205.228h-2.138c-100.476-47.031-203.090-94.063-303.566-138.956zM532.309 385.069c-2.138-10.689-10.689-17.102-19.24-14.965-10.689 0-19.24 6.413-19.24 14.965 2.138 10.689 10.689 17.102 19.24 14.965 8.551 0 19.24-6.413 19.24-14.965zM513.069 335.9c-27.791 0-51.307 21.378-53.445 49.169 0 12.827 4.276 23.516 12.827 32.067 10.689 10.689 25.653 14.965 38.48 14.965 27.791 2.138 51.307-21.378 51.307-49.169 0-12.827-4.276-23.516-14.965-32.067-6.413-8.551-19.24-14.965-34.205-14.965z" />
<glyph unicode="&#xe617;" glyph-name="tingzhi" d="M236.386 751.486h551.229c50.721 0 91.871-41.151 91.871-91.871v-551.229c0-50.721-41.151-91.871-91.871-91.871h-551.229c-50.721 0-91.871 41.151-91.871 91.871v551.229c0 50.721 41.151 91.871 91.871 91.871z" />
<glyph unicode="&#xe618;" glyph-name="tuijian" d="M1020.988 802.635c0 3.012-3.012 9.035-3.012 12.047-3.012 3.012-3.012 9.035-6.024 12.047s-6.024 9.035-9.035 12.047c-12.047 15.059-27.106 30.118-48.188 39.153-18.071 9.035-39.153 15.059-60.235 15.059h-768c-21.082 0-42.165-6.024-60.235-15.059-6.024-3.012-12.047-6.024-18.071-12.047-9.035-6.024-18.071-15.059-24.094-24.094-3.012-3.012-6.024-9.035-9.035-12.047 0-6.024-3.012-9.035-6.024-15.059 0-3.012-3.012-6.024-3.012-12.047 0-3.012-3.012-9.035-3.012-12.047v-12.047h-3.012v-795.106c0-3.012 0-9.035 3.012-12.047l9.035-27.106c3.012-3.012 3.012-9.035 6.024-12.047s6.024-9.035 9.035-12.047l27.106-27.106c21.082-12.047 48.188-21.082 72.282-21.082h768c63.247 0 117.459 48.188 126.494 111.435v807.153c3.012 3.012 0 9.035 0 12.047zM370.447 61.741h-63.247v228.894c-24.094-21.082-48.188-42.165-75.294-60.235-12.047 18.071-27.106 36.141-42.165 54.212 72.282 45.176 132.518 102.4 180.706 174.682h-156.612v57.224h189.741c6.024 12.047 9.035 21.082 15.059 33.129h-57.224v51.2h-150.588v57.224h150.588v48.188h63.247v-48.188h192.753v48.188h63.247v-48.188h150.588v-57.224h-150.588v-54.212h-63.247v54.212h-192.753v-36.141l6.024 15.059 63.247-15.059c-6.024-18.071-12.047-33.129-21.082-48.188h352.376v-57.224h-382.494c-21.082-36.141-45.176-69.271-72.282-102.4v-295.153zM662.588 212.329v-84.329c0-30.118-6.024-45.176-30.118-54.212-36.141-9.035-72.282-12.047-105.412-9.035-6.024 18.071-12.047 39.153-21.082 54.212h81.318c9.035 0 12.047 3.012 12.047 12.047v84.329h-186.729v54.212h186.729v42.165c27.106 12.047 51.2 27.106 75.294 45.176h-207.812v51.2h271.059l12.047 3.012 39.153-33.129c-39.153-33.129-81.318-63.247-126.494-87.341v-21.082h174.682v-54.212h-174.682z" />
<glyph unicode="&#xe619;" glyph-name="record" d="M734.593-127.917h-446.322c-21.751 0-39.384 17.633-39.384 39.384s17.633 39.384 39.384 39.384v0h446.322c21.751 0 39.384-17.633 39.384-39.384s-17.633-39.384-39.384-39.384v0zM511.958 34.078c-216.065 0.305-391.138 175.378-391.443 391.414v0.029c0 21.751 17.633 39.384 39.384 39.384s39.384-17.633 39.384-39.384v0c1.439-171.601 140.882-310.155 312.686-310.155s311.247 138.554 312.685 310.019l0.001 0.136c0 21.751 17.633 39.384 39.384 39.384s39.384-17.633 39.384-39.384v0c-0.305-216.072-175.39-391.15-391.436-391.443h-0.028zM538.221 224.152h-52.505c-101.486 0-183.757 82.271-183.757 183.757v0 304.334c0 101.486 82.271 183.757 183.757 183.757h52.505c101.486 0 183.757-82.271 183.757-183.757v-305.367c-0.586-101.041-82.631-182.724-183.754-182.724-0.001 0-0.002 0-0.003 0v0zM485.695 817.232c-57.988 0-104.998-47.003-105.010-104.988v-305.368c0-57.995 47.014-105.010 105.010-105.010v0h52.505c57.995 0 105.010 47.014 105.010 105.010v0 305.367c0 57.995-47.014 105.010-105.010 105.010v0zM511.958-127.917c-21.745 0-39.373 17.628-39.373 39.373v161.995c0 21.751 17.633 39.384 39.384 39.384s39.384-17.633 39.384-39.384v0-163.11c-0.576-21.297-17.978-38.341-39.36-38.341-0.005 0-0.010 0-0.014 0h0.001z" />
<glyph unicode="&#xe61a;" glyph-name="shangpin" d="M510.512 669.239c4.618-3.093 10.3-4.937 16.412-4.937 10.355 0 19.473 5.29 24.802 13.315l0.069 0.11 5.81 8.75v-208.427c0.426-17.966 15.091-32.366 33.119-32.366s32.693 14.401 33.118 32.327l0.001 0.040v208.497l5.81-8.75c5.411-8.128 14.536-13.412 24.894-13.412 16.463 0 29.809 13.346 29.809 29.809 0 6.105-1.835 11.781-4.984 16.507l0.068-0.109-61.408 93.013c-6.468 8.021-16.294 13.109-27.309 13.109s-20.841-5.088-27.257-13.042l-0.052-0.067-61.391-92.908c-3.093-4.639-4.936-10.342-4.936-16.475 0-10.387 5.286-19.54 13.315-24.915l0.108-0.068zM1010.003 715.684c-5.985 8.989-16.073 14.833-27.527 14.84h-184.576c-17.966-0.426-32.367-15.091-32.367-33.119s14.401-32.693 32.327-33.118l0.039-0.001h155.752l-53.446-398.829h-631.757c-1.515-0.043-2.962-0.2-4.372-0.464l0.172 0.027-53.551 399.582c1.295-0.105 2.468-0.438 3.763-0.438h184.609c17.966 0.426 32.366 15.091 32.366 33.119s-14.401 32.693-32.327 33.118l-0.040 0.001h-184.627c-0.026 0-0.057 0-0.088 0-4.392 0-8.573-0.908-12.364-2.545l0.202 0.078-18.725 139.371c-2.28 16.281-16.114 28.674-32.842 28.674-1.538 0-3.052-0.105-4.535-0.308l0.172 0.019c-0.648-0.105-1.19-0.315-1.75-0.438-1.991 0.412-4.279 0.648-6.621 0.648-0.016 0-0.032 0-0.049 0h-104.473c-17.966-0.426-32.366-15.091-32.366-33.119s14.401-32.693 32.327-33.118l0.040-0.001h88.393l99.751-743.25c0-0.315 0.21-0.648 0.21-0.963 1.259-17.202 15.495-30.688 32.894-30.748h672.101c0.227-0.006 0.494-0.009 0.761-0.009 18.296 0 33.128 14.832 33.128 33.128s-14.832 33.128-33.128 33.128c-0.268 0-0.535-0.003-0.801-0.009l0.040 0.001h-643.132l-10.5 78.383h643.202c0.1-0.001 0.217-0.002 0.335-0.002 2.284 0 4.504 0.275 6.629 0.794l-0.191-0.039c0.543-0.105 1.068-0.315 1.61-0.438h0.315c1.311-0.184 2.825-0.288 4.363-0.288 16.729 0 30.563 12.393 32.822 28.499l0.020 0.175 61.251 456.755c0.162 1.229 0.254 2.651 0.254 4.094 0 10.989-5.356 20.727-13.6 26.746l-0.094 0.065zM251.002-57.457c0-38.96 31.583-70.543 70.543-70.543s70.543 31.583 70.543 70.543c0 38.96-31.583 70.543-70.543 70.543v0c-38.96 0-70.543-31.583-70.543-70.543v0zM789.185-57.457c0-38.96 31.583-70.543 70.543-70.543s70.543 31.583 70.543 70.543c0 38.96-31.583 70.543-70.543 70.543v0c-38.96 0-70.543-31.583-70.543-70.543v0z" />
<glyph unicode="&#xe61b;" glyph-name="tianjia" d="M560 112h-96v224h-224v96h224v224h96v-224h224v-96h-224z" />
<glyph unicode="&#xe61c;" glyph-name="wenda1" horiz-adv-x="1028" d="M554.268 205.498c4.689 23.481-23.481 37.584-46.98 37.584s-56.359-18.792-56.359-42.273 32.877-42.273 51.67-42.273 51.67 23.481 51.67 46.98zM554.268 487.327c-10.767-6.645-20.015-14.423-27.993-23.359l-0.107-0.122c-23.481-23.481-46.98-46.98-51.67-89.254s-9.396-65.755-9.396-65.755c-0.006-0.242-0.009-0.527-0.009-0.812 0-20.757 16.827-37.584 37.584-37.584s37.584 16.827 37.584 37.584c0 0.286-0.003 0.571-0.010 0.855l0.001-0.042c0.664 18.686 4.052 36.36 9.779 52.944l-0.383-1.274c4.864 22.222 18.596 40.565 37.213 51.469l0.371 0.201c4.689 4.689 14.050 9.396 18.792 14.050 28.1 18.792 56.359 46.98 79.858 108.028 23.481 56.359-14.050 122.131-32.877 140.923-26.108 28.54-62.178 47.589-102.67 51.616l-0.669 0.054c-8.409 1.312-18.108 2.062-27.982 2.062-46.68 0-89.447-16.754-122.616-44.577l0.296 0.241c-46.98-42.273-56.359-122.131-56.359-122.131-0.11-1.356-0.172-2.935-0.172-4.529 0-8.521 1.789-16.624 5.011-23.953l-0.15 0.382c-4.689-4.689 4.689-9.396 14.050-9.396 1.356-0.11 2.935-0.172 4.529-0.172 8.521 0 16.624 1.789 23.953 5.011l-0.382-0.15c8.41 4.376 14.055 13.025 14.055 22.993 0 0.172-0.002 0.343-0.005 0.514v-0.026c4.689 18.792 14.050 56.359 32.877 75.151 19.467 18.447 45.826 29.79 74.834 29.79 6.754 0 13.363-0.615 19.777-1.792l-0.668 0.102c37.584-4.689 51.67-18.792 61.066-32.877 9.396-9.396 23.481-42.273 14.050-61.066-6.439-31.846-25.304-58.396-51.203-74.873l-0.467-0.278zM868.992 895.977h-709.27c-0.393 0.004-0.858 0.006-1.323 0.006-87.471 0-158.381-70.909-158.381-158.381 0-0.465 0.002-0.93 0.006-1.394v0.071-596.535c0.729-85.308 69.684-154.27 154.92-155.008h216.092c0.163-0.003 0.356-0.004 0.549-0.004 20.457 0 37.040 16.583 37.040 37.040 0 0.193-0.001 0.385-0.004 0.578v-0.029c-0.127 18.333-15.018 33.145-33.368 33.145-1.486 0-2.95-0.097-4.385-0.285l0.169 0.018h-216.021c-0.105 0-0.228-0.001-0.352-0.001-46.5 0-84.196 37.696-84.196 84.196 0 0.124 0 0.248 0.001 0.371v-0.019 596.535c1.678 48.604 40.65 87.575 89.097 89.249l0.157 0.004h709.27c0.105 0 0.228 0.001 0.352 0.001 46.5 0 84.196-37.696 84.196-84.196 0-0.124 0-0.248-0.001-0.371v0.019-596.553c0-0.105 0.001-0.228 0.001-0.352 0-46.5-37.696-84.196-84.196-84.196-0.124 0-0.248 0-0.371 0.001h-206.659c-0.642 0.020-1.398 0.031-2.156 0.031-23.73 0-44.912-10.912-58.8-27.992l-0.11-0.139-89.254-98.632c-6.198-6.085-10.039-14.553-10.039-23.918 0-11.497 5.79-21.642 14.614-27.678l0.115-0.074c6.182-5.669 14.401-9.204 23.443-9.395l0.038-0.001c10.513 1.069 20.058 4.425 28.388 9.561l-0.288-0.165 89.394 98.544c4.689 4.689 4.689 4.689 9.396 4.689h206.625c85.314 0.729 154.279 69.694 155.008 154.939v601.33c-4.704 85.274-73.975 152.907-159.498 154.987l-0.2 0.004z" />
<glyph unicode="&#xe61d;" glyph-name="shangpin-1" d="M963.869 18.411l-39.339 559.437c-4.509 73.063-64.867 130.611-138.667 130.611-0.235 0-0.47-0.001-0.705-0.002h-60.561c-14.636 106.262-104.849 187.226-213.973 187.226-109.4 0-199.793-81.375-213.954-186.897l-0.122-1.108h-59.008c-0.229 0.001-0.499 0.002-0.77 0.002-73.501 0-133.658-57.133-138.483-129.412l-0.022-0.421-39.338-559.436c-0.194-2.716-0.305-5.885-0.305-9.080 0-35.772 13.887-68.301 36.564-92.489l-0.068 0.074c25.911-27.473 62.46-44.669 103.028-44.975h626.357c40.655 0.14 77.257 17.378 103.010 44.896l0.074 0.079c22.645 23.695 36.583 55.877 36.583 91.315 0 3.583-0.142 7.132-0.422 10.643l0.030-0.463zM510.664 831.181c73.823-0.283 135.29-52.834 149.334-122.554l0.165-0.979h-298.998c14.392 70.596 75.75 123.043 149.446 123.533h0.053zM824.594-56.339h-626.301c-0.207-0.002-0.452-0.004-0.697-0.004-37.011 0-67.014 30.003-67.014 67.014 0 0.782 0.013 1.56 0.040 2.335l-0.003-0.112 39.339 559.437c2.011 35.622 31.387 63.746 67.333 63.746 0.12 0 0.24 0 0.359-0.001h548.384c35.875-0.364 65.124-28.246 67.661-63.525l0.013-0.221 39.339-559.437c0.005-0.321 0.009-0.7 0.009-1.080 0-37.64-30.513-68.153-68.153-68.153-0.098 0-0.196 0-0.294 0.001h0.015zM510.664 210.397c-118.995 0.171-215.413 96.589-215.583 215.567v0.016c0.032 17.363 14.115 31.427 31.483 31.427s31.451-14.063 31.483-31.424v-0.003c0-84.305 68.343-152.648 152.647-152.648s152.648 68.343 152.648 152.648v0c0 0.017 0 0.036 0 0.056 0 17.388 14.095 31.483 31.483 31.483s31.483-14.095 31.483-31.483c0-0.020 0-0.039 0-0.059v0.003c0.001-0.196 0.001-0.428 0.001-0.66 0-118.699-96.225-214.924-214.924-214.924-0.253 0-0.506 0-0.759 0.001h0.039z" />
<glyph unicode="&#xe61e;" glyph-name="toupiao" horiz-adv-x="1166" d="M1129.809 138.383c-5.088 21.942-20.635 88.493-74.816 88.493h-216.324l195.991 222.76c13.742 15.682 22.124 36.36 22.124 58.996 0 26.74-11.698 50.748-30.256 67.185l-0.094 0.082-338.685 297.657c-15.684 13.904-36.442 22.395-59.183 22.395-26.737 0-50.733-11.738-67.116-30.341l-0.085-0.099-398.217-452.68c-13.828-15.685-22.269-36.407-22.269-59.1 0-26.701 11.685-50.672 30.219-67.080l0.095-0.082 67.757-59.531h-105.507c-44.649 0-62.548-18.101-79.905-80.307l-53.015-175.618-0.523-3.258c0-54.584 32.38-95.833 75.339-95.833h1015.654c44.126 0 75.983 38.776 75.983 92.314zM579.466 96.61l-35.115 0.261c-0.019 0-0.043 0-0.066 0-11.452 0-22.143 3.257-31.197 8.894l0.25-0.145-269.339 227.265c-7.739 6.678-12.609 16.499-12.609 27.458 0 9.22 3.447 17.634 9.121 24.026l-0.032-0.037 365.776 406.704c6.685 7.465 16.352 12.141 27.112 12.141 8.47 0 16.263-2.897 22.442-7.755l-0.078 0.059 300.231-263.326c7.005-6.107 11.555-14.875 12.064-24.712l0.004-0.086c0.046-0.679 0.072-1.472 0.072-2.271 0-9.182-3.445-17.559-9.113-23.909l0.031 0.035-342.285-375.51c-6.919-7.824-27.091-9.010-37.267-9.010zM365.716 132.812l14.239-12.53c0.506-0.478 0.821-1.153 0.821-1.903 0-0.613-0.211-1.177-0.564-1.622l0.004 0.005c-0.464-0.479-1.112-0.779-1.829-0.784h-55.751c-1.117 0.107-2.415 0.168-3.727 0.168-22.101 0-40.167-17.271-41.439-39.052l-0.005-0.112c0.228-21.797 17.951-39.378 39.779-39.378 1.254 0 2.494 0.058 3.719 0.172l-0.157-0.012 523.836-0.905c1.013-0.094 2.19-0.147 3.38-0.147 21.363 0 38.699 17.24 38.855 38.566v0.015c-0.377 21.391-17.807 38.588-39.253 38.588-1.050 0-2.090-0.041-3.118-0.122l0.136 0.009-108.605 1.689c-1.602 0.002-3.038 0.708-4.017 1.824l-0.005 0.006c-1.002 1.107-1.633 2.567-1.689 4.172v0.011c-0.001 0.027-0.001 0.059-0.001 0.091 0 1.319 0.496 2.523 1.312 3.434l-0.004-0.005 6.919 9.010c6.919 8.869 17.337 24.416 28.559 24.416h253.169c17.493-0.102 32.058-12.514 35.477-29.007l0.041-0.236 35.296-141.628c0.424-2.082 0.667-4.475 0.667-6.924 0-7.543-2.301-14.549-6.238-20.354l0.081 0.127c-5.293-7.83-13.422-13.399-22.882-15.248l-0.227-0.037c-1.804-0.419-3.876-0.659-6.004-0.659-0.322 0-0.642 0.005-0.961 0.016l0.046-0.001h-931.988c-19.994 0-36.202 16.208-36.202 36.202v0c0 3.816 0.574 7.497 1.639 10.964l-0.070-0.264 45.373 135.595c4.673 14.892 18.323 25.519 34.464 25.582l173.111-0.121c-0.241-0.101 17.155-13.676 23.813-19.549zM469.11 448.359l134.494-121.141q29.887-26.92 2.967-56.808v0q-26.92-29.887-56.808-2.967l-134.494 121.141q-29.887 26.92-2.967 56.808v0q26.92 29.887 56.808 2.967zM781.352 464.426l-174.982-194.269q-26.92-29.887-56.808-2.967v0q-29.887 26.92-2.967 56.808l174.982 194.269q26.92 29.887 56.808 2.967v0q29.887-26.92 2.967-56.808z" />
<glyph unicode="&#xe61f;" glyph-name="toupiao-liebiao" d="M391.433 896h231.059c46.107-0.608 83.25-38.127 83.25-84.321 0-0.352-0.002-0.703-0.006-1.054l0.001 0.053v-938.662h-397.547v938.662c-0.004 0.297-0.006 0.649-0.006 1.001 0 46.194 37.143 83.713 83.192 84.321l0.057 0.001zM631.888-54.98v874.091h-244.642v-874.091zM85.322 640.516l226.963-2.078c47.133 0 74.239-39.152 74.239-86.346v-597.705c0.067-1.212 0.105-2.629 0.105-4.056 0-43.246-35.058-78.305-78.305-78.305-0.63 0-1.258 0.007-1.885 0.022l0.093-0.002h-221.211c-47.126 0.017-85.322 38.224-85.322 85.352 0 0.011 0 0.021 0 0.032v-0.002 597.705c0 0.009 0 0.020 0 0.030 0 47.128 38.196 85.335 85.32 85.352h0.002zM66.92 571.247v-627.943l245.334-2.078v627.943zM704.742 427.046h233.769c0.036 0 0.078 0 0.12 0 47.139 0 85.352-38.213 85.352-85.352 0-0.011 0-0.021 0-0.032v0.002-384.235c0-0.009 0-0.020 0-0.030 0-47.128-38.196-85.335-85.32-85.352h-233.922c-47.133 0-72.281 38.219-72.281 85.382v391.945c-0.368 2.676-0.579 5.768-0.579 8.909 0 38.040 30.838 68.878 68.878 68.878 1.401 0 2.792-0.042 4.172-0.124l-0.19 0.009zM704.742 349.373v-406.040h241.751v406.040z" />
<glyph unicode="&#xe620;" glyph-name="shanxingshanchu" d="M648.192 491.307l150.869 150.827c3.705 3.832 5.989 9.060 5.989 14.821 0 11.782-9.551 21.333-21.333 21.333-5.761 0-10.988-2.283-14.827-5.994l-150.863-150.821-150.827 150.827c-3.832 3.705-9.060 5.989-14.821 5.989-11.782 0-21.333-9.551-21.333-21.333 0-5.761 2.283-10.988 5.994-14.827l150.821-150.821-150.827-150.869c-4.018-3.885-6.513-9.323-6.513-15.345 0-11.782 9.551-21.333 21.333-21.333 6.021 0 11.46 2.495 15.339 6.507l150.833 150.875 150.869-150.869c3.832-3.705 9.060-5.989 14.821-5.989 11.782 0 21.333 9.551 21.333 21.333 0 5.761-2.283 10.988-5.994 14.827l-150.863 150.863zM0 896h896c70.692 0 128-57.308 128-128v0-896c-565.547 0-1024 458.453-1024 1024z" />
<glyph unicode="&#xe621;" glyph-name="xiaoxi" d="M775.028 361.565c-41.332 0.233-74.659 34.583-74.38 76.66s33.978 75.962 75.311 75.683c41.239-0.279 74.473-34.397 74.426-76.335 0-42.031-33.513-76.055-74.799-76.009h-0.559zM511.86 361.565c-41.379 0.233-74.659 34.583-74.426 76.66 0.279 42.077 33.978 75.962 75.357 75.683 41.193-0.279 74.473-34.397 74.38-76.335 0-42.031-33.513-76.055-74.752-76.009h-0.559zM248.646 361.565c-41.332 0.233-74.659 34.583-74.38 76.66 0.233 42.077 33.978 75.962 75.311 75.683 41.239-0.279 74.473-34.397 74.38-76.335-0.093-42.124-33.745-76.148-75.124-76.009h-0.186zM866.444 849.455h-709.213c-74.566-0.652-134.516-62.697-133.958-138.566v-524.241c-0.559-75.869 59.392-137.914 133.958-138.566h169.891l137.449-112.593c12.735-10.574 29.251-16.991 47.267-16.991s34.532 6.417 47.389 17.090l-0.122-0.099 137.449 112.64h169.891c74.612 0.652 134.609 62.604 134.284 138.519v524.241c0.326 75.916-59.671 137.868-134.284 138.566z" />
<glyph unicode="&#xe622;" glyph-name="userWait" d="M748.866 337.497c-128.543 0-232.748-104.205-232.748-232.748s104.205-232.748 232.748-232.748c128.54 0 232.744 104.2 232.748 232.74v0.001c0 128.545-104.204 232.752-232.748 232.756h-0.001zM748.866-69.815c-96.401 0.005-174.547 78.154-174.547 174.555 0 96.404 78.151 174.555 174.555 174.555s174.555-78.151 174.555-174.555v0c-0.118-96.36-78.203-174.442-174.552-174.555h-0.011zM777.959 116.787v104.3c0 16.070-13.027 29.097-29.097 29.097s-29.097-13.027-29.097-29.097v0-116.418c0.004-8.018 3.276-15.271 8.557-20.499l58.123-58.171c5.266-5.266 12.541-8.523 20.577-8.523 16.072 0 29.101 13.029 29.101 29.101 0 8.036-3.257 15.311-8.523 20.577v0zM499.47-54.465h-333.243c-0.222-0.003-0.484-0.005-0.747-0.005-31.691 0-57.381 25.69-57.381 57.381 0 0.304 0.002 0.608 0.007 0.91l-0.001-0.046c1.012 194.287 149.072 353.678 338.51 372.606l1.572 0.127h40.032c43.917 3.479 106.036 14.865 138.536 43.917l14.865 10.844c60.346 48.146 98.677 121.682 98.677 204.169 0 143.903-116.656 260.559-260.559 260.559-0.878 0-1.756-0.004-2.632-0.013l0.134 0.001c-135.2 0-252.239-117.039-252.239-259.739 0.31-82.627 38.538-156.262 98.179-204.451l0.5-0.391 18.209-10.844-18.209-7.365c-165.743-65.289-280.97-223.857-281.299-409.381v-0.041c-0.004-0.389-0.007-0.85-0.007-1.31 0-68.047 55.163-123.209 123.209-123.209 0.369 0 0.738 0.002 1.106 0.005h332.51c16.372 1.567 29.074 15.25 29.074 31.901 0 0.41-0.008 0.817-0.023 1.223l0.002-0.059c0.271 25.836-17.938 33.201-28.79 33.201zM290.074 636.248c0 107.142 86.856 193.998 193.998 193.998s193.998-86.856 193.998-193.998c0-107.142-86.856-193.998-193.998-193.998v0c-106.829 0.774-193.224 87.169-193.998 193.924v0.074z" />
<glyph unicode="&#xe623;" glyph-name="userLocking" d="M491.77-60.417h-335.33c-0.223-0.003-0.487-0.005-0.752-0.005-31.889 0-57.74 25.851-57.74 57.74 0 0.306 0.002 0.611 0.007 0.916l-0.001-0.046c1.018 195.504 150.006 355.893 340.63 374.94l1.582 0.128h40.283c44.193 3.501 106.7 14.958 139.404 44.193l14.958 10.912c60.724 48.448 99.295 122.444 99.295 205.448 0 144.804-117.387 262.191-262.191 262.191-0.884 0-1.767-0.004-2.648-0.013l0.135 0.001c-136.047 0-253.819-117.772-253.819-261.366 0.312-83.144 38.78-157.24 98.793-205.731l0.503-0.394 18.323-10.912-18.323-7.411c-166.781-65.698-282.73-225.259-283.061-411.944v-0.041c-0.004-0.392-0.007-0.855-0.007-1.318 0-68.473 55.508-123.981 123.981-123.981 0.372 0 0.743 0.002 1.113 0.005h334.592c16.475 1.576 29.256 15.346 29.256 32.101 0 0.412-0.008 0.822-0.023 1.231l0.002-0.059c0.272 25.998-18.050 33.409-28.97 33.409zM281.062 634.622c0 107.813 87.4 195.213 195.213 195.213s195.213-87.4 195.213-195.213c0-107.813-87.4-195.213-195.213-195.213v0c-107.498 0.779-194.434 87.715-195.213 195.139v0.074zM962.633 168.477h-5.929v47.429c0.002 0.324 0.004 0.707 0.004 1.090 0 87.791-71.169 158.96-158.96 158.96-0.103 0-0.205 0-0.308 0h0.016c-88.513 0-159.24-71.136-159.24-154.121v-53.35h-5.929c-0.475 0.029-1.031 0.045-1.591 0.045-15.447 0-27.969-12.522-27.969-27.969 0-0.605 0.019-1.206 0.057-1.801l-0.004 0.081v-237.146c-0.034-0.514-0.053-1.115-0.053-1.72 0-15.447 12.522-27.969 27.969-27.969 0.56 0 1.116 0.016 1.667 0.049l-0.076-0.004h330.346c15.873 1.117 28.464 13.755 29.502 29.548l0.005 0.095v237.146c0.034 0.514 0.053 1.115 0.053 1.72 0 15.447-12.522 27.969-27.969 27.969-0.56 0-1.116-0.016-1.667-0.049l0.076 0.004zM697.222 221.835c0 55.358 44.876 100.234 100.234 100.234s100.234-44.876 100.234-100.234v0-53.35h-200.469v53.35zM933.126-68.621h-271.332v177.86h271.332zM797.456-33.057c17.626 0 29.507 11.857 29.507 23.715v59.287c0.034 0.514 0.053 1.115 0.053 1.72 0 15.447-12.522 27.969-27.969 27.969-0.56 0-1.116-0.016-1.667-0.049l0.076 0.004c-17.626 0-29.507-11.857-29.507-23.715v-59.287c-0.034-0.514-0.053-1.115-0.053-1.72 0-15.447 12.522-27.969 27.969-27.969 0.56 0 1.116 0.016 1.667 0.049l-0.076-0.004z" />
<glyph unicode="&#xe630;" glyph-name="yuandian" d="M593.18 401.092c0-28.253-22.894-51.165-51.158-51.165-28.261 0-51.172 22.912-51.172 51.165 0 28.27 22.912 51.165 51.172 51.165 28.264 0 51.158-22.895 51.158-51.165z" />
<glyph unicode="&#xe647;" glyph-name="home" d="M511.933 835.736c0.096 0.001 0.209 0.002 0.322 0.002 7.491 0 14.344-2.736 19.612-7.264l-0.040 0.034 4.222-3.603 397.537-287.918v-544.492c0-33.268-26.969-60.236-60.236-60.236v0h-722.835c-33.268 0-60.236 26.969-60.236 60.236v544.492l397.559 288.139 4.222 3.603c5.172 4.31 11.886 6.927 19.212 6.927 0.24 0 0.479-0.003 0.718-0.008l-0.035 0.001M511.955 895.884c-0.303 0.004-0.661 0.006-1.019 0.006-22.715 0-43.473-8.383-59.347-22.225l0.108 0.092-401.14-290.925c-12.578-11.094-20.47-27.248-20.47-45.244 0-0.079 0-0.159 0-0.238v0.012-544.801c0-66.535 53.937-120.473 120.473-120.473v0h722.835c66.535 0 120.473 53.937 120.473 120.473v0 544.735c0 0.067 0 0.147 0 0.226 0 17.996-7.892 34.15-20.404 45.187l-0.066 0.057-401.229 291.212c-15.744 13.67-36.443 22.002-59.088 22.002-0.404 0-0.807-0.003-1.21-0.008l0.061 0.001zM511.933 293.654c49.895 0 90.343-40.448 90.343-90.343v0-271.052h-180.687v271.052c0 49.895 40.448 90.343 90.343 90.343v0M511.933 353.89c-83.163 0-150.58-67.417-150.58-150.58v-331.31h301.159v331.31c0 83.163-67.417 150.58-150.58 150.58v0z" />
<glyph unicode="&#xe64a;" glyph-name="img" horiz-adv-x="1093" d="M860.176-128h-746.936c-0.031 0-0.068 0-0.105 0-62.473 0-113.118 50.645-113.118 113.118 0 0.037 0 0.073 0 0.11v-0.006 677.087c0 0.031 0 0.068 0 0.105 0 62.473 50.645 113.118 113.118 113.118 0.037 0 0.073 0 0.11 0h746.913c0.031 0 0.068 0 0.105 0 62.473 0 113.118-50.645 113.118-113.118 0-0.037 0-0.073 0-0.11v0.006-677.069c0-0.036 0-0.079 0-0.122 0-62.473-50.645-113.118-113.118-113.118-0.031 0-0.061 0-0.092 0h0.005zM113.24 703.243c-0.104 0.001-0.227 0.002-0.35 0.002-22.434 0-40.621-18.186-40.621-40.621 0-0.123 0.001-0.246 0.002-0.369v0.019-677.035c-0.001-0.099-0.001-0.216-0.001-0.332 0-22.434 18.186-40.621 40.621-40.621 0.123 0 0.246 0.001 0.369 0.002h746.9c0.104-0.001 0.227-0.002 0.35-0.002 22.434 0 40.621 18.186 40.621 40.621 0 0.117 0 0.234-0.001 0.35v-0.018 677.069c0.001 0.104 0.002 0.227 0.002 0.35 0 22.434-18.186 40.621-40.621 40.621-0.123 0-0.246-0.001-0.369-0.002h0.019zM1057.74-7.531c-0.194-0.004-0.422-0.006-0.65-0.006-19.606 0-35.5 15.894-35.5 35.5 0 0.229 0.002 0.457 0.006 0.685l-0.001-0.034v669.806c-0.383 69.043-56.251 124.91-125.257 125.293h-739.727c-19.962 0-36.144 16.182-36.144 36.144s16.182 36.144 36.144 36.144v0h739.69c109.097-0.060 197.522-88.484 197.582-197.576v-669.881c0.003-0.173 0.005-0.377 0.005-0.581 0-19.606-15.894-35.5-35.5-35.5-0.228 0-0.456 0.002-0.683 0.006l0.034-0.001zM36.144 4.488c-0.073-0.001-0.16-0.001-0.246-0.001-13.553 0-25.294 7.763-31.017 19.085l-0.091 0.199c-2.69 4.999-4.271 10.939-4.271 17.248 0 13.709 7.464 25.676 18.549 32.057l0.179 0.095 602.378 325.262c4.955 2.872 10.901 4.567 17.244 4.567 10.388 0 19.714-4.547 26.097-11.759l0.032-0.037 149.384-163.841c5.775-6.336 9.313-14.8 9.313-24.090 0-19.78-16.035-35.815-35.815-35.815-10.49 0-19.927 4.51-26.477 11.697l-0.026 0.028-130.101 142.085-578.305-312.023c-4.356-2.996-9.744-4.785-15.55-4.785-0.449 0-0.895 0.011-1.339 0.032l0.063-0.002zM283.108 341.803c-63.204 0-114.442 51.237-114.442 114.442s51.237 114.442 114.442 114.442c63.204 0 114.442-51.237 114.442-114.442v0c-0.412-63.038-51.404-114.030-114.402-114.441h-0.039zM283.108 498.415c-23.29 0-42.171-18.881-42.171-42.171s18.881-42.171 42.171-42.171c23.29 0 42.171 18.881 42.171 42.171v0c-0.281 23.176-18.995 41.889-42.144 42.171h-0.027z" />
<glyph unicode="&#xe64b;" glyph-name="like" horiz-adv-x="1053" d="M1022.482 487.455c-26.458 31.588-65.917 51.533-110.035 51.533-0.361 0-0.721-0.001-1.081-0.004h-247.866c12.849 33.318 21.948 71.947 25.542 112.161l0.12 1.659c1.204 9.46 1.891 20.405 1.891 31.511 0 44.109-10.841 85.687-30.003 122.213l0.691-1.446c-29.016 49.124-79.27 83.050-137.797 89.195l-0.787 0.067c-5.296 1.036-11.386 1.629-17.614 1.629-20.512 0-39.522-6.432-55.124-17.389l0.306 0.204c-39.906-29.041-47.253-84.296-55.703-148.311-3.495-55.456-17.988-106.773-41.314-152.862l1.028 2.241c-17.245-27.593-50.771-64.601-142.792-64.601h-96.092c-0.614 0.012-1.339 0.019-2.065 0.019-61.946 0-112.334-49.486-113.788-111.082l-0.003-0.135v-420.789c1.438-61.746 51.833-111.251 113.791-111.251 0.701 0 1.401 0.006 2.1 0.019l-0.105-0.001h699.475c0.024 0 0.052 0 0.081 0 33.188 0 63.795 11.055 88.337 29.685l-0.363-0.264c24.289 18.533 41.999 44.593 49.703 74.66l0.205 0.944 96.23 394.852c2.392 9.365 3.765 20.117 3.765 31.189 0 32.174-11.593 61.64-30.829 84.449l0.161-0.196zM77.156-16.698v420.789c0.479 20.582 17.278 37.084 37.93 37.084 0.246 0 0.491-0.002 0.736-0.007l-0.037 0.001h81.536v-494.944h-81.536c-0.208-0.004-0.454-0.006-0.699-0.006-20.653 0-37.451 16.502-37.93 37.040l-0.001 0.045zM973.919 388.88l-96.195-394.921c-7.326-27.674-32.142-47.741-61.645-47.741-0.288 0-0.575 0.002-0.861 0.006h-540.532v500.118c62 9.235 114.242 44.692 145.877 94.52l0.503 0.848c28.037 51.972 46.268 113.089 50.562 178.016l0.071 1.337c2.923 26.983 7.147 50.929 12.803 74.315l-0.801-3.919c1.692 11.011 6.64 20.645 13.814 28.128l-0.017-0.018c2.623 1.26 5.702 1.997 8.954 1.997 1.943 0 3.825-0.263 5.611-0.755l-0.148 0.035c35.182-2.832 65.178-22.694 81.994-51.247l0.266-0.489c34.008-59.876 18.97-160.934-13.451-229.778-3.124-6.412-4.95-13.949-4.95-21.913 0-10.697 3.295-20.625 8.925-28.824l-0.112 0.173c10.143-14.663 26.87-24.146 45.811-24.146 0.191 0 0.383 0.001 0.574 0.003h280.623c0.133 0.001 0.29 0.002 0.447 0.002 20.073 0 38.029-9.063 50-23.32l0.082-0.101c8.659-10.278 13.921-23.666 13.921-38.283 0-5.033-0.624-9.921-1.799-14.589l0.088 0.411z" />
<glyph unicode="&#xe64c;" glyph-name="link" d="M594.411 457.603c-7.050 6.987-14.577 13.528-22.514 19.556l-0.559 0.407c-8.204 7.787-19.319 12.576-31.553 12.576-25.334 0-45.871-20.537-45.871-45.871 0-11.125 3.96-21.325 10.548-29.268l-0.061 0.076c3.203-3.804 6.932-7.031 11.103-9.612l0.198-0.114c4.331-3.583 8.584-7.087 12.56-11.064l3.937-3.937c47.525-47.486 33.35-129.306-14.175-176.831l-202.858-202.819c-22.077-22.018-52.544-35.632-86.191-35.632s-64.114 13.614-86.194 35.635l-3.934 3.934c-21.994 22.073-35.592 52.524-35.592 86.152s13.598 64.079 35.596 86.155l89.613 89.613c12.363 9.173 20.288 23.722 20.288 40.123 0 27.514-22.305 49.819-49.819 49.819-11.114 0-21.378-3.639-29.665-9.791l0.134 0.095-0.945-0.906c-3.594-2.591-6.712-5.509-9.423-8.776l-0.067-0.083-93.16-87.175c-40.577-40.815-65.658-97.074-65.658-159.191s25.081-118.376 65.669-159.202l3.926-3.926c40.818-40.556 97.067-65.622 159.172-65.622s118.354 25.067 159.184 65.634l202.807 202.846c42.704 40.203 69.297 97.106 69.297 160.22 0 59.46-23.603 113.408-61.951 152.984l0.056-0.058zM958.232 826.543l-3.937 3.937c-40.805 40.584-97.059 65.671-159.172 65.671s-118.367-25.087-159.182-65.681l-202.809-202.848c-41.88-37.864-68.083-92.392-68.083-153.040 0-58.341 24.247-111.018 63.213-148.505l0.067-0.064 3.701-3.662c3.937-3.937 8.111-7.875 12.324-11.301 3.032-3.369 6.536-6.234 10.426-8.512l0.205-0.111c6.185-3.608 13.616-5.738 21.544-5.738 23.921 0 43.312 19.391 43.312 43.312 0 6.842-1.586 13.313-4.411 19.066l0.113-0.255c-6.233 11.078-14.211 20.412-23.671 27.967l-0.19 0.146-3.741 3.662c-47.525 47.525-29.492 116.628 18.034 164.153l202.937 202.819c22.073 21.994 52.524 35.592 86.152 35.592s64.079-13.598 86.155-35.596l-0.004 0.004 3.937-3.741c22.029-22.079 35.651-52.554 35.651-86.211s-13.622-64.132-35.654-86.213l-89.339-89.378c-11.861-9.12-19.43-23.315-19.43-39.278 0-27.291 22.124-49.415 49.415-49.415 9.273 0 17.949 2.554 25.364 6.997l-0.224-0.125v-0.276l1.378 1.26c4.339 2.935 8.052 6.373 11.184 10.295l0.077 0.1 94.145 86.86c40.676 40.815 65.826 97.126 65.826 159.311 0 61.93-24.943 118.034-65.332 158.814l0.018-0.018z" />
<glyph unicode="&#xe64e;" glyph-name="message" horiz-adv-x="1162" d="M573.588-127.716c-12.742 1.068-24.067 6.405-32.707 14.557l0.026-0.025-123.422 127.061h-297.672c-0.381-0.004-0.832-0.007-1.283-0.007-65.462 0-118.53 53.068-118.53 118.53 0 0.443 0.002 0.885 0.007 1.327l-0.001-0.067v642.534c0.596 65.926 53.88 119.21 119.749 119.806h922.115c65.926-0.596 119.21-53.88 119.806-119.749v-646.23c0.004-0.381 0.007-0.832 0.007-1.283 0-65.462-53.068-118.53-118.53-118.53-0.451 0-0.902 0.003-1.352 0.008l0.069-0.001c-0.002 0-0.003 0-0.005 0-16.039 0-29.042 13.002-29.042 29.042s13.002 29.042 29.042 29.042c0.002 0 0.004 0 0.006 0v0c31.163 2.179 55.905 26.92 58.072 57.887l0.011 0.197v649.813c-2.179 31.163-26.92 55.905-57.887 58.072l-0.197 0.011h-922.058c-31.163-2.179-55.905-26.92-58.072-57.887l-0.011-0.197v-646.173c0.87-31.723 26.361-57.214 58.002-58.082l0.082-0.002h312.181c0.186 0.005 0.405 0.007 0.624 0.007 8.694 0 16.391-4.268 21.11-10.824l0.053-0.077 127.061-127.061 123.351 127.061c4.772 6.633 12.469 10.901 21.163 10.901 0.219 0 0.438-0.003 0.656-0.008l-0.032 0.001h116.167c16.039 0 29.042-13.002 29.042-29.042s-13.002-29.042-29.042-29.042v0h-105.203l-123.422-127.061c-10.859-8.756-24.733-14.17-39.861-14.508l-0.075-0.001zM366.656 464.013c0-34.088-27.634-61.723-61.723-61.723s-61.723 27.634-61.723 61.723c0 34.088 27.634 61.723 61.723 61.723v0c0.162 0.002 0.354 0.002 0.546 0.002 33.788 0 61.179-27.391 61.179-61.179 0-0.192-0.001-0.384-0.003-0.575v0.029M642.565 467.652c0-0.007 0-0.015 0-0.024 0-34.088-27.634-61.723-61.723-61.723s-61.723 27.634-61.723 61.723c0 34.088 27.634 61.723 61.723 61.723v0c33.671-1.018 60.705-28.051 61.72-61.627l0.002-0.095M918.473 463.989c0-34.088-27.634-61.723-61.723-61.723s-61.723 27.634-61.723 61.723c0 34.088 27.634 61.723 61.723 61.723v0c0.162 0.002 0.354 0.002 0.546 0.002 33.788 0 61.179-27.391 61.179-61.179 0-0.192-0.001-0.384-0.003-0.575v0.029" />
<glyph unicode="&#xe64f;" glyph-name="post" d="M775.558 400.274c0.002 0.091 0.003 0.198 0.003 0.305 0 8.601-6.903 15.59-15.471 15.729h-310.158c-8.585-0.159-15.484-7.156-15.484-15.764 0-0.095 0.001-0.19 0.003-0.284v0.014-32.067c-0.001-0.075-0.002-0.164-0.002-0.252 0-8.612 6.896-15.613 15.468-15.781h310.161c8.581 0.139 15.484 7.128 15.484 15.729 0 0.107-0.001 0.214-0.003 0.321v-0.016 32.067M961.62 895.964h-713.267c-34.372-0.557-62.022-28.552-62.022-63.005 0-0.335 0.003-0.669 0.008-1.002l-0.001 0.050v-191.834h-124.047c-34.374-0.568-62.022-28.566-62.022-63.022 0-0.329 0.003-0.657 0.008-0.984l-0.001 0.049v-639.566c-0.005-0.283-0.007-0.617-0.007-0.952 0-34.452 27.65-62.447 61.97-63.004l0.052-0.001h124.368c8.64-1.443 26.509 0 61.694 0h658.165c16.548 1.395 29.451 15.171 29.451 31.96s-12.903 30.565-29.334 31.952l-0.118 0.008h-627.095c-30.286 0-31.016-0.125-31.016 32.067v831.382c-0.002 0.139-0.003 0.303-0.003 0.467 0 17.231 13.829 31.232 30.994 31.511h651.279c17.17-0.268 30.987-14.249 30.987-31.458 0-0.214-0.002-0.428-0.006-0.641l0.001 0.032v-927.424c34.383 0.518 62.058 28.512 62.058 62.97 0 0.334-0.003 0.668-0.008 1.001l0.001-0.050v895.57c0.005 0.288 0.007 0.628 0.007 0.969 0 34.462-27.672 62.46-62.008 62.987l-0.050 0.001M186.356-63.438h-93.031c-17.19 0.268-31.021 14.266-31.021 31.494 0 0.202 0.002 0.403 0.006 0.604v-0.030 575.591c-0.003 0.171-0.005 0.372-0.005 0.574 0 17.228 13.832 31.226 30.996 31.493h93.056v-639.566M760.005 224.581h-310.074c-8.587-0.169-15.483-7.17-15.483-15.781 0-0.089 0.001-0.177 0.002-0.266v0.013-32.067c-0.001-0.065-0.001-0.141-0.001-0.217 0-8.619 6.892-15.627 15.465-15.816h310.163c8.583 0.149 15.484 7.142 15.484 15.746 0 0.101-0.001 0.202-0.003 0.302v-0.015 32.067c0.001 0.080 0.002 0.175 0.002 0.27 0 8.608-6.899 15.605-15.469 15.764h-0.015M775.558 592.358c0.002 0.091 0.003 0.198 0.003 0.305 0 8.601-6.903 15.59-15.471 15.729h-310.158c-8.585-0.159-15.484-7.156-15.484-15.764 0-0.095 0.001-0.19 0.003-0.284v0.014-32.067c-0.001-0.075-0.002-0.164-0.002-0.252 0-8.612 6.896-15.613 15.468-15.781h310.161c8.581 0.139 15.484 7.128 15.484 15.729 0 0.107-0.001 0.214-0.003 0.321v-0.016 32.067" />
<glyph unicode="&#xe650;" glyph-name="poster" d="M310.244 380.094l295.444-295.427c5.848-6.185 14.111-10.035 23.273-10.035 17.676 0 32.005 14.329 32.005 32.005 0 9.162-3.85 17.425-10.020 23.259l-0.015 0.014-82.090 82.090 109.562 109.579 165.295-165.278c5.739-5.505 13.544-8.894 22.141-8.894 17.676 0 32.005 14.329 32.005 32.005 0 8.601-3.393 16.41-8.913 22.161l0.010-0.011-181.212 181.229c-8.293 5.396-18.439 8.604-29.335 8.604s-21.042-3.209-29.546-8.733l0.211 0.128-125.495-125.495-189.282 189.385c-6.256 5.795-14.659 9.351-23.892 9.351s-17.636-3.555-23.915-9.372l0.023 0.021-135.935-135.814c-5.51-5.74-8.903-13.549-8.903-22.15 0-17.676 14.329-32.005 32.005-32.005 8.597 0 16.402 3.39 22.152 8.905l-0.011-0.011zM938.459 896h-852.918c-0.005 0-0.011 0-0.017 0-47.233 0-85.524-38.29-85.524-85.524 0-0.006 0-0.012 0-0.018v0.001-852.918c0-0.005 0-0.011 0-0.017 0-47.233 38.29-85.524 85.524-85.524 0.006 0 0.012 0 0.018 0h852.917c0.005 0 0.011 0 0.017 0 47.233 0 85.524 38.29 85.524 85.524 0 0.006 0 0.012 0 0.018v-0.001 852.918c0 0.005 0 0.011 0 0.017 0 47.233-38.29 85.524-85.524 85.524-0.006 0-0.012 0-0.018 0h0.001zM960.007-21.409c-0.029-23.527-19.103-42.589-42.632-42.599h-810.715c-23.53 0.010-42.604 19.072-42.633 42.596v810.786c0.010 23.542 19.091 42.623 42.632 42.633h810.75c23.527-0.029 42.589-19.103 42.599-42.632v-0.001zM810.663 554.626c47.129 0 85.335 38.206 85.335 85.335s-38.206 85.335-85.335 85.335c-47.129 0-85.335-38.206-85.335-85.335v0c0-47.129 38.206-85.335 85.335-85.335v0z" />
<glyph unicode="&#xe651;" glyph-name="publish" d="M0 384c0-282.77 229.23-512 512-512s512 229.23 512 512v0c0 282.77-229.23 512-512 512s-512-229.23-512-512v0zM81.92 384c0-237.527 192.553-430.080 430.080-430.080s430.080 192.553 430.080 430.080v0c0 237.527-192.553 430.080-430.080 430.080s-430.080-192.553-430.080-430.080v0zM695.157 352.518h-152.371v-151.675h-52.896v151.675h-151.683v53.592h151.683v151.683h52.896v-151.675h152.371z" />
<glyph unicode="&#xe652;" glyph-name="screen" d="M140.819 614.404c21.207 0 38.398-17.191 38.398-38.398v0-248.361c59.596-17.299 102.421-71.4 102.421-135.504s-42.825-118.205-101.426-135.256l-0.995-0.248v-146.108c-0.004-21.204-17.194-38.392-38.398-38.392s-38.394 17.188-38.398 38.391v0 146.108c-59.596 17.299-102.421 71.4-102.421 135.504s42.825 118.205 101.426 135.256l0.995 0.248v248.361c0 21.207 17.191 38.398 38.398 38.398v0zM524.798 896c21.207 0 38.398-17.191 38.398-38.398v0-197.284c59.596-17.299 102.421-71.4 102.421-135.504s-42.825-118.205-101.426-135.256l-0.995-0.248v-478.88c-0.004-21.204-17.194-38.392-38.398-38.392s-38.394 17.188-38.398 38.391v0 478.88c-59.596 17.299-102.421 71.4-102.421 135.504s42.825 118.205 101.426 135.256l0.995 0.248v197.284c0 21.207 17.191 38.398 38.398 38.398v0zM883.19 435.224c21.207 0 38.398-17.191 38.398-38.398v0-120.651c59.596-17.299 102.421-71.4 102.421-135.504s-42.825-118.205-101.426-135.256l-0.995-0.248v-94.769c-0.004-21.204-17.194-38.392-38.398-38.392s-38.394 17.188-38.398 38.391v0 94.769c-59.596 17.299-102.421 71.4-102.421 135.504s42.825 118.205 101.426 135.256l0.995 0.248v120.488c0 21.207 17.191 38.398 38.398 38.398v0zM883.19 204.837c-35.338 0-63.986-28.647-63.986-63.986s28.647-63.986 63.986-63.986c35.338 0 63.986 28.647 63.986 63.986v0c0 35.327-28.629 63.967-63.951 63.986h-0.002zM140.819 256.045c-35.338 0-63.986-28.647-63.986-63.986s28.647-63.986 63.986-63.986c35.338 0 63.986 28.647 63.986 63.986v0c-0.019 35.324-28.659 63.953-63.986 63.953v0zM524.798 588.849c-35.338 0-63.986-28.647-63.986-63.986s28.647-63.986 63.986-63.986c35.338 0 63.986 28.647 63.986 63.986v0c-0.019 35.313-28.64 63.934-63.951 63.953h-0.002z" />
<glyph unicode="&#xe653;" glyph-name="share" horiz-adv-x="1319" d="M806.934 802.993c-0.886 0-1.255-1.329-1.255-4.689v-128.563c-1.65-61.116-47.801-110.963-107.138-118.385l-0.601-0.061h-0.369c-155.9-14.458-293.935-81.308-398.494-182.53l0.178 0.171c-84.133-82.063-153.14-179.169-202.75-287.040l-2.463-5.974c-1.772-3.692-1.218-9.526 2.769-9.526 2.489 0.316 4.669 1.442 6.313 3.101l0.001 0.001c118.151 98.471 345.038 173.239 581.746 178.186 65.542-1.432 118.422-53.693 120.84-118.851l0.007-0.224v-159.319c0-2.917 0.258-4.357 1.218-4.357s2.474 1.292 5.058 3.877c98.988 99.025 403.227 388.643 403.227 388.643 6.911 8.94 11.077 20.307 11.077 32.647 0 0.062 0 0.124 0 0.187v-0.010c0.001 0.129 0.002 0.282 0.002 0.434 0 14.269-5.629 27.224-14.788 36.764l0.017-0.018s-303.648 275.55-400.237 372.176c-1.92 1.92-3.286 3.212-4.135 3.212M807.156 895.852c27.554-0.16 52.35-11.833 69.847-30.447l0.047-0.051c90.755-90.792 374.022-348.213 395.695-367.893q2.991-2.621 5.76-5.501c25.268-26.166 40.837-61.841 40.837-101.153 0-0.213 0-0.425-0.001-0.638v0.033c0-0.019 0-0.041 0-0.063 0-33.89-11.443-65.107-30.677-89.998l0.253 0.341c-2.987-3.833-6.082-7.245-9.413-10.412l-0.039-0.037c-3.028-2.88-304.534-289.95-401.566-387.055-17.76-18.991-42.894-30.895-70.812-31.125h-0.042c-43.781 0.079-80.542 30.039-90.981 70.57l-0.143 0.653c-1.973 7.588-3.105 16.3-3.105 25.276 0 0.317 0.001 0.634 0.004 0.951v-0.048 156.772c-1.031 15.325-13.187 27.506-28.407 28.572l-0.097 0.005h-1.551c-236.302-5.76-431.214-82.595-520.012-156.55-17.569-15.2-40.599-24.51-65.8-24.664h-0.032c-0.030 0-0.066 0-0.102 0-33.98 0-63.836 17.655-80.897 44.292l-0.23 0.384c-9.633 15.298-15.348 33.904-15.348 53.846 0 15.806 3.591 30.774 10.001 44.132l-0.265-0.614c57.247 124.827 133.077 231.282 225.282 320.991l0.239 0.232c59.722 57.059 128.955 104.833 204.958 140.596l4.723 1.998c70.997 33.101 153.443 56.005 240.158 64.268l3.049 0.235c13.764 2.434 24.142 14.13 24.516 28.317l0.001 0.039v126.089q0 3.434 0.258 6.868c0.418 7.679 1.618 14.886 3.529 21.798l-0.169-0.716c11.152 40.402 47.5 69.609 90.698 69.783h0.020z" />
<glyph unicode="&#xe654;" glyph-name="share1" horiz-adv-x="1033" d="M230.808 184.080c-127.472 0-230.808 103.336-230.808 230.808s103.336 230.808 230.808 230.808c127.472 0 230.808-103.336 230.808-230.808v0c-0.493-127.273-103.535-230.315-230.761-230.808h-0.047zM230.808 583.92c-91.571 0-165.804-74.233-165.804-165.804s74.233-165.804 165.804-165.804c91.571 0 165.804 74.233 165.804 165.804v0c-0.383 91.416-74.387 165.42-165.767 165.804h-0.037zM828.954 603.286c-80.786 0-146.276 65.49-146.276 146.276s65.49 146.276 146.276 146.276c80.786 0 146.276-65.49 146.276-146.276v0c0.001-0.144 0.001-0.315 0.001-0.485 0-80.448-65.216-145.663-145.663-145.663-0.216 0-0.432 0-0.648 0.001h0.033zM828.954 834.094c-44.885 0-81.272-36.387-81.272-81.272s36.387-81.272 81.272-81.272c44.885 0 81.272 36.387 81.272 81.272v0c0.003 0.28 0.005 0.61 0.005 0.94 0 44.44-36.025 80.465-80.465 80.465-0.286 0-0.571-0.001-0.856-0.004h0.043zM858.196-128.129c-96.954 0-175.551 78.597-175.551 175.551s78.597 175.551 175.551 175.551c96.954 0 175.551-78.597 175.551-175.551v0c0.001-0.183 0.001-0.399 0.001-0.615 0-96.544-78.265-174.809-174.809-174.809-0.261 0-0.523 0.001-0.784 0.002h0.040zM858.196 157.936c-61.035 0-110.514-49.479-110.514-110.514s49.479-110.514 110.514-110.514c61.035 0 110.514 49.479 110.514 110.514v0c0.002 0.269 0.004 0.588 0.004 0.906 0 60.608-49.132 109.74-109.74 109.74-0.274 0-0.547-0.001-0.82-0.003h0.042zM423.563 350.465l327.96-205.181-34.503-55.128-327.96 205.181zM710.177 730.616l31.147-57.065-325.313-177.52-31.147 57.065z" />
<glyph unicode="&#xe655;" glyph-name="video" d="M765.522 896h-507.062c-130.766-0.168-236.727-106.13-236.896-236.88v-550.172c0.168-130.766 106.13-236.727 236.88-236.896h507.078c130.766 0.168 236.727 106.13 236.896 236.88v550.172c-0.168 130.766-106.13 236.727-236.88 236.896h-0.016zM926.489 109.035c-0.089-88.864-72.103-160.878-160.959-160.967h-507.070c-88.864 0.089-160.878 72.103-160.967 160.959v550.078c0.109 88.849 72.116 160.843 160.959 160.932h507.070c88.844-0.099 160.841-72.090 160.95-160.922v-0.010zM677.191 434.976l-202.494 128.464c-9.145 5.887-20.311 9.386-32.295 9.386-33.251 0-60.21-26.934-60.252-60.175v-257.071c0.007-22.612 12.483-42.309 30.926-52.588l0.306-0.157c8.371-4.677 18.367-7.431 29.005-7.431 11.988 0 23.159 3.497 32.549 9.526l-0.24-0.144 202.598 128.464c16.884 10.857 27.908 29.549 27.908 50.816 0 21.317-11.077 40.048-27.789 50.749l-0.241 0.144zM443.013 256.625v254.872l200.891-127.436zM644.705 383.504l16.252 25.745z" />
<glyph unicode="&#xe656;" glyph-name="word" horiz-adv-x="1137" d="M164.981 435.21h272.985l62.581-164.981h102.4l-244.557 625.75h-113.771l-244.619-631.436h102.4l62.581 170.667zM278.752 753.781c5.685 17.056 11.371 34.133 17.077 56.875h5.685c4.741-17.501 10.562-32.621 17.714-46.96l-0.657 1.456c0.637-4.483 2.69-8.4 5.684-11.37l0.001-0.001c0-5.685 34.133-85.344 91.029-244.619h-227.542c62.581 159.296 91.029 238.933 91.029 244.619zM614.4 656.985h523.391v-79.638h-523.391zM0 184.906h1137.771v-79.638h-1137.771zM614.4 418.154h523.391v-79.638h-523.391zM0-48.342h1137.771v-79.638h-1137.771zM614.4 890.315h523.391v-79.638h-523.391z" />
<glyph unicode="&#xe657;" glyph-name="wx-friends" horiz-adv-x="1247" d="M608.058 583.483c0.002 0 0.005 0 0.007 0 30.786 0 55.743 24.957 55.743 55.743s-24.957 55.743-55.743 55.743c-0.003 0-0.005 0-0.008 0v0c-32.279 0-66.748-21.274-66.748-55.743 0-33.717 34.469-55.743 66.748-55.743zM365.266 639.962c0.043 0.799 0.067 1.735 0.067 2.676 0 29.345-23.789 53.134-53.134 53.134-0.941 0-1.877-0.024-2.807-0.073l0.13 0.005c-32.279 0-66.748-21.274-66.748-55.743s34.469-55.743 66.748-55.743c1.165-0.093 2.522-0.146 3.892-0.146 28.717 0 51.997 23.28 51.997 51.997 0 1.37-0.053 2.727-0.157 4.070l0.011-0.178zM1247.659 245.411c-1.68 88.716-40.898 167.951-102.384 222.723l-0.305 0.267c-65.102 59.528-149.865 98.532-243.498 106.253l-1.485 0.099v4.399c-38.868 180.359-232.506 316.848-451.097 316.848-247.909 0-448.89-172.431-448.89-384.399 0-112.958 57.215-215.648 166.511-295.591l-37.413-112.958c-0.694-2.034-1.095-4.377-1.095-6.814 0-6.641 2.978-12.587 7.67-16.575l0.031-0.026c3.87-3.225 8.894-5.182 14.375-5.182 3.575 0 6.955 0.833 9.957 2.314l-0.132-0.059 142.293 71.147 16.875-3.663h0.736c38.36-9.592 82.715-15.677 128.29-16.859l0.807-0.017c19.195 0.355 37.567 3.276 54.979 8.432l-1.46-0.371c54.271-132.024 199.508-220.765 362.339-220.765 45.084 1.751 87.784 8.837 128.472 20.653l-3.756-0.934 109.296-59.406c2.965-1.663 6.473-2.723 10.209-2.924l0.060-0.003c0.233-0.010 0.506-0.016 0.78-0.016 5.083 0 9.709 1.958 13.164 5.162l-0.012-0.011c5.040 4.080 8.235 10.266 8.235 17.199 0 2.215-0.326 4.355-0.934 6.372l0.040-0.156-27.88 91.685c93.156 74.14 145.22 164.353 145.22 253.178zM1053.302 28.225c-5.133-3.631-8.444-9.544-8.444-16.229 0-2.334 0.404-4.575 1.145-6.655l-0.043 0.138 15.403-52.081-66.012 35.941c-2.965 1.663-6.473 2.723-10.209 2.924l-0.060 0.003c-0.249 0.018-0.54 0.028-0.833 0.028-1.544 0-3.022-0.28-4.387-0.792l0.086 0.028c-34.431-10.64-74.287-17.734-115.477-19.757l-1.144-0.045c-178.235 0-323.471 122.491-323.471 272.863s145.237 272.863 323.471 272.863c175.308 0 322.786-124.699 322.786-272.863 0.669-74.809-46.26-151.826-132.81-216.367zM221.518 227.014c0.696 2.011 1.098 4.328 1.098 6.739 0 7.21-3.595 13.58-9.091 17.416l-0.069 0.046c-102.689 71.916-154.77 159.168-154.77 259.65 0 181.094 174.572 328.606 389.534 328.606 187.768 0 355.75-114.43 392.41-266.256-200.244-4.399-362.339-146.692-362.339-319.073 0-0.092 0-0.201 0-0.309 0-24.695 3.481-48.576 9.98-71.18l-0.446 1.815h-2.927c-11.707-0.736-24.201-1.472-36.677-1.472-41.887 1.056-81.952 6.612-120.42 16.205l3.799-0.802-23.415 4.399c-1.161 0.158-2.503 0.248-3.866 0.248-3.607 0-7.068-0.63-10.277-1.786l0.211 0.066-97.555-49.137zM746.689 386.166c-25.115 0-45.474-20.36-45.474-45.474s20.36-45.474 45.474-45.474v0c2.814-0.606 6.046-0.953 9.36-0.953 25.641 0 46.428 20.786 46.428 46.428s-20.786 46.428-46.428 46.428c-3.314 0-6.546-0.347-9.663-1.007l0.303 0.054zM980.666 386.166c-25.115 0-45.474-20.36-45.474-45.474s20.36-45.474 45.474-45.474v0c2.814-0.606 6.046-0.953 9.36-0.953 25.641 0 46.428 20.786 46.428 46.428s-20.786 46.428-46.428 46.428c-3.314 0-6.546-0.347-9.663-1.007l0.303 0.054z" />
<glyph unicode="&#xe658;" glyph-name="delete" d="M621.716 91.467c-0.011 0-0.023 0-0.036 0-20.192 0-36.56 16.368-36.56 36.56 0 0.013 0 0.025 0 0.038v-0.002 402.267c-0.011 0.34-0.018 0.74-0.018 1.141 0 20.211 16.384 36.596 36.596 36.596s36.596-16.384 36.596-36.596c0-0.401-0.006-0.801-0.019-1.199l0.001 0.058v-402.267c0-0.021 0-0.046 0-0.071 0-20.172-16.353-36.524-36.524-36.524-0.025 0-0.050 0-0.075 0h0.004M402.249 91.467c-0.011 0-0.023 0-0.036 0-20.192 0-36.56 16.368-36.56 36.56 0 0.013 0 0.025 0 0.038v-0.002 402.267c-0.011 0.34-0.018 0.74-0.018 1.141 0 20.211 16.384 36.596 36.596 36.596s36.596-16.384 36.596-36.596c0-0.401-0.006-0.801-0.019-1.199l0.001 0.058v-402.267c0-0.011 0-0.023 0-0.036 0-20.192-16.368-36.56-36.56-36.56-0.013 0-0.025 0-0.038 0h0.002M987.387 713.093h-182.836v73.156c0 0.096 0 0.209 0 0.322 0 60.249-48.69 109.127-108.868 109.429h-366.697c-60.559-0.101-109.619-49.187-109.68-109.745v-73.162h-182.942c-19.714-0.634-35.454-16.768-35.454-36.578s15.74-35.943 35.396-36.576l0.058-0.001h950.88c19.714 0.634 35.454 16.768 35.454 36.578s-15.74 35.943-35.396 36.576l-0.058 0.001M292.355 786.249c0.040 20.195 16.401 36.555 36.592 36.596h366.672c0.004 0 0.009 0 0.014 0 19.661 0 35.599-15.938 35.599-35.599 0-0.351-0.005-0.7-0.015-1.048l0.001 0.051v-73.156h-438.613v73.156M768.205-128h-512.125c-60.542 0.081-109.599 49.138-109.68 109.672v549.12c-0.011 0.34-0.018 0.74-0.018 1.141 0 20.211 16.384 36.596 36.596 36.596s36.596-16.384 36.596-36.596c0-0.401-0.006-0.801-0.019-1.199l0.001 0.058v-549.076c0.040-20.195 16.401-36.555 36.592-36.596h512.093c20.211 0 36.596 16.384 36.596 36.596v0 547.581c-0.011 0.34-0.018 0.74-0.018 1.141 0 20.211 16.384 36.596 36.596 36.596s36.596-16.384 36.596-36.596c0-0.401-0.006-0.801-0.019-1.199l0.001 0.058v-547.581c-0.162-60.547-49.231-109.579-109.777-109.68h-0.010" />
<glyph unicode="&#xe659;" glyph-name="add" d="M455.999 329.469h-399.435c-0.355-0.008-0.773-0.013-1.192-0.013-30.71 0-55.605 24.895-55.605 55.605s24.895 55.605 55.605 55.605c0.419 0 0.837-0.005 1.254-0.014l-0.062 0.001h399.435v399.077c0.004 31.059 25.184 56.237 56.244 56.237s56.24-25.177 56.244-56.236v0-399.077h398.208c0.355 0.008 0.773 0.013 1.192 0.013 30.71 0 55.605-24.895 55.605-55.605s-24.895-55.605-55.605-55.605c-0.419 0-0.837 0.005-1.254 0.014l0.062-0.001h-398.259v-401.199c-0.004-31.059-25.184-56.237-56.244-56.237s-56.24 25.177-56.244 56.236v0z" />
<glyph unicode="&#xe65a;" glyph-name="call" d="M0.011 381.681c0-317.1 220.155-509.583 523.355-509.583 3.12-0.047 6.803-0.073 10.491-0.073 70.391 0 138.518 9.69 203.121 27.809l-5.284-1.266c34.073 10.573 44.927 27.903 44.927 45.695-0.154 17.329-14.238 31.317-31.589 31.317-0.523 0-1.042-0.013-1.559-0.038l0.073 0.003c-8.357-0.264-16.311-1.481-23.915-3.546l0.722 0.167c-54.278-15.007-116.649-23.771-181.021-24.063l-0.172-0.001c-270.561 0-454.237 158.717-454.237 430.66 0 260.346 173.795 441.744 435.447 441.744 231.573 0 425.104-139.082 425.104-388.83 0-145.917-50.841-243.963-131.837-243.963-2.617-0.316-5.648-0.496-8.72-0.496-42.514 0-76.978 34.464-76.978 76.978 0 2.382 0.108 4.74 0.32 7.067l-0.022-0.299v326.214c0.164 1.318 0.258 2.844 0.258 4.391 0 20.741-16.814 37.554-37.554 37.554-0.775 0-1.545-0.023-2.308-0.070l0.105 0.005c-0.677 0.043-1.467 0.067-2.263 0.067-21.207 0-38.399-17.192-38.399-38.399 0-1.249 0.060-2.485 0.176-3.704l-0.012 0.155v-54.834h-4.454c-27.521 57.713-85.398 96.884-152.423 96.884-2.655 0-5.295-0.061-7.92-0.183l0.372 0.014c-127.869 0-217.723-106.34-217.723-258.862 0-153.981 89.368-261.294 219.72-261.294 1.416-0.042 3.081-0.066 4.752-0.066 72.008 0 133.602 44.587 158.68 107.659l0.405 1.154h4.429c9.907-67.864 68.146-109.233 146.659-109.233 137.751 0 223.176 131.837 223.176 316.614 0 279.597-211.323 460.995-502.62 460.995-306.502-0.026-521.282-204.591-521.282-514.344zM499.2 194.959c-88.907 0-144.688 71.678-144.688 185.75 0 112.1 56.319 183.804 145.149 183.804 90.34 0 147.632-70.27 147.632-181.91 0-114.020-58.264-187.644-148.118-187.644z" />
<glyph unicode="&#xe65b;" glyph-name="expression" d="M512.007-127.998c-282.766 0.004-511.992 229.232-511.992 511.999 0 141.409 57.327 269.428 150.008 362.085l0.001 0.001c92.679 92.711 220.73 150.055 362.175 150.055 282.827 0 512.103-229.276 512.103-512.103 0-141.382-57.293-269.382-149.929-362.049l0.002 0.002c-92.236-92.655-219.883-149.992-360.922-149.992-0.508 0-1.017 0.001-1.525 0.002h0.079zM512.007 829.261c-245.852-0.209-445.073-199.559-445.073-445.439 0-122.869 49.748-234.119 130.2-314.706l-0.006 0.006c80.215-78.378 190.058-126.733 311.195-126.733 246.009 0 445.439 199.43 445.439 445.439 0 121.067-48.299 230.854-126.681 311.142l0.087-0.089c-80.18 80.541-191.14 130.382-313.742 130.382-0.4 0-0.8-0.001-1.199-0.002h0.062zM330.247 244.251c40.653-57.71 106.77-95.118 181.658-95.769l0.101-0.001c80.416 3.682 151.718 39.864 201.587 95.621l0.243 0.277c0.088 0.001 0.192 0.001 0.296 0.001 24.898 0 45.082-20.184 45.082-45.082 0-1.009-0.033-2.010-0.098-3.003l0.007 0.135c-56.85-68.675-142.114-112.098-237.521-112.098-3.374 0-6.736 0.054-10.084 0.162l0.488-0.012c-168.55 0-223.411 111.872-223.411 111.872s-1.664 47.949 41.523 47.949zM363.322 548.634c-34.614-0.015-62.669-28.078-62.669-62.694 0-34.625 28.069-62.694 62.694-62.694 34.616 0 62.68 28.055 62.694 62.667v0.001c-0.044 34.622-28.098 62.676-62.716 62.72h-0.004zM684.704 548.634c-34.614-0.015-62.669-28.078-62.669-62.694 0-34.625 28.069-62.694 62.694-62.694 34.616 0 62.68 28.055 62.694 62.667v0.001c0 34.639-28.081 62.72-62.72 62.72v0z" />
<glyph unicode="&#xe65c;" glyph-name="oval" d="M0 384c0-282.77 229.23-512 512-512s512 229.23 512 512v0c0 282.77-229.23 512-512 512s-512-229.23-512-512v0z" />
<glyph unicode="&#xe65e;" glyph-name="play" d="M0 384c0 282.77 229.23 512 512 512s512-229.23 512-512c0-282.77-229.23-512-512-512v0c-282.77 0-512 229.23-512 512v0zM669.45 372.675c3.23 2.73 5.268 6.785 5.268 11.315s-2.037 8.585-5.246 11.297l-0.022 0.018-240.681 205.21c-3.065 2.783-7.154 4.486-11.641 4.486-0.069 0-0.138 0-0.207-0.001h0.010c-0.256 0.014-0.556 0.022-0.857 0.022-8.862 0-16.095-6.975-16.509-15.734l-0.001-0.037v-410.501c0.415-8.797 7.648-15.771 16.51-15.771 0.301 0 0.601 0.008 0.898 0.024l-0.042-0.002c0.012 0 0.026 0 0.041 0 4.536 0 8.676 1.701 11.814 4.501l-0.018-0.015 240.681 205.21z" />
<glyph unicode="&#xe660;" glyph-name="selected" d="M0 384c0-282.77 229.23-512 512-512s512 229.23 512 512v0c0 282.77-229.23 512-512 512s-512-229.23-512-512v0zM418.272 268.576l339.424 339.424 67.904-67.872-407.328-407.296-226.272 226.272 67.872 67.872z" />
<glyph unicode="&#xe661;" glyph-name="cancel-follow" horiz-adv-x="1197" d="M1183.759 172.344h-496.195c-7.194-0.025-13.019-5.851-13.045-13.042v-52.226c0.025-7.194 5.851-13.019 13.042-13.045h496.242c7.194 0.025 13.019 5.851 13.045 13.042v52.226c-0.025 7.21-5.876 13.045-13.090 13.045 0 0 0 0 0 0v0zM368.258 816.784c78.748-0.046 150.161-31.415 202.461-82.322l-0.065 0.063 27.434-26.896 27.434 26.896c52.276 50.963 123.799 82.397 202.665 82.397 160.404 0 290.437-130.033 290.437-290.437 0-0.080 0-0.161 0-0.241v0.013c-0.406-26.313-5.152-51.39-13.551-74.723l0.506 1.609c-1.879-5.331-3.258-11.537-3.875-17.966l-0.025-0.324c0.076-21.607 17.572-39.103 39.172-39.179h0.007c18.917 0 32.634 18.917 38.507 32.007 9.167 30.493 14.444 65.533 14.444 101.806 0 202.145-163.871 366.016-366.016 366.016-87.005 0-166.92-30.358-229.73-81.058l0.698 0.545c-62.43 50.057-142.594 80.335-229.83 80.335-203.754 0-368.93-165.176-368.93-368.93 0-0.001 0-0.002 0-0.003v0c0-259.999 425.054-561.509 554.336-647.040 0.573-0.493 1.221-0.926 1.918-1.275l0.054-0.025c5.889-2.798 12.722-4.86 19.901-5.832l0.361-0.040c21.607 0.076 39.103 17.572 39.179 39.172v0.007c0 0.071 0.001 0.155 0.001 0.239 0 13.674-7.254 25.654-18.125 32.301l-0.166 0.094c-162.589 104.448-520.402 376.102-520.402 582.398 1.014 160.253 130.881 289.837 291.146 290.392h0.053z" />
<glyph unicode="&#xe663;" glyph-name="follow" horiz-adv-x="1197" d="M1183.759 172.344h-208.941v208.941c-0.025 7.194-5.851 13.019-13.042 13.045h-52.136c-7.194-0.025-13.019-5.851-13.045-13.042v-208.943h-209.030c-7.194-0.025-13.019-5.851-13.045-13.042v-52.226c0.025-7.194 5.851-13.019 13.042-13.045h208.943v-208.941c0.025-7.194 5.851-13.019 13.042-13.045h52.226c7.194 0.025 13.019 5.851 13.045 13.042v208.943h208.941c7.194 0.025 13.019 5.851 13.045 13.042v52.226c-0.025 7.194-5.851 13.019-13.042 13.045h-0.002zM368.258 816.784c78.748-0.046 150.161-31.415 202.461-82.322l-0.065 0.063 27.434-26.896 27.434 26.896c52.276 50.963 123.799 82.397 202.665 82.397 160.404 0 290.437-130.033 290.437-290.437 0-0.080 0-0.161 0-0.241v0.013c-0.406-26.313-5.152-51.39-13.551-74.723l0.506 1.609c-1.879-5.331-3.258-11.537-3.875-17.966l-0.025-0.324c0.076-21.607 17.572-39.103 39.172-39.179h0.007c18.917 0 32.634 18.917 38.507 32.007 9.167 30.493 14.444 65.533 14.444 101.806 0 202.145-163.871 366.016-366.016 366.016-87.005 0-166.92-30.358-229.73-81.058l0.698 0.545c-62.43 50.057-142.594 80.335-229.83 80.335-203.754 0-368.93-165.176-368.93-368.93 0-0.001 0-0.002 0-0.003v0c0-259.999 425.054-561.509 554.336-647.040 0.573-0.493 1.221-0.926 1.918-1.275l0.054-0.025c5.889-2.798 12.722-4.86 19.901-5.832l0.361-0.040c21.607 0.076 39.103 17.572 39.179 39.172v0.007c0 0.071 0.001 0.155 0.001 0.239 0 13.674-7.254 25.654-18.125 32.301l-0.166 0.094c-162.589 104.448-520.402 376.102-520.402 582.398 1.014 160.253 130.881 289.837 291.146 290.392h0.053z" />
<glyph unicode="&#xe669;" glyph-name="waring" d="M497.778 128v85.333h28.444v-85.333zM497.778 298.667v341.333h28.444v-341.333z" />
<glyph unicode="&#xe66a;" glyph-name="collection" horiz-adv-x="1050" d="M307.493-113.943c-13.917-8.766-30.845-13.967-48.988-13.967-33.784 0-63.355 18.034-79.613 45.001l-0.234 0.418c-8.513 13.973-13.553 30.873-13.553 48.95 0 7.704 0.915 15.194 2.643 22.367l-0.132-0.649 57.204 243.955c0.281 1.129 0.443 2.425 0.443 3.759 0 4.784-2.077 9.082-5.379 12.043l-0.015 0.013-187.249 163.171c-19.913 17.501-32.413 43.025-32.413 71.468 0 23.338 8.416 44.71 22.378 61.248l-0.116-0.141c15.586 18.464 38.004 30.734 63.307 32.888l0.344 0.024 245.771 20.018c5.633 0.569 10.29 4.226 12.289 9.232l0.035 0.1 94.675 231.524c14.163 34.472 47.478 58.304 86.358 58.304s72.195-23.832 86.133-57.684l0.226-0.619 94.675-231.524c2.017-5.126 6.68-8.801 12.262-9.363l245.833-20.023c48.337-4.655 85.827-45.064 85.827-94.229 0-28.386-12.497-53.853-32.29-71.2l-0.109-0.093-187.249-163.171c-3.317-2.974-5.394-7.273-5.394-12.056 0-1.334 0.161-2.63 0.466-3.869l-0.023 0.111 57.204-243.955c1.632-6.568 2.568-14.108 2.568-21.867 0-44.062-30.191-81.073-71.016-91.474l-0.653-0.141c-6.57-1.665-14.112-2.621-21.877-2.621-18.127 0-35.037 5.208-49.316 14.209l0.383-0.225-210.402 130.758c-2.096 1.336-4.651 2.129-7.391 2.129s-5.295-0.793-7.447-2.163l0.056 0.033-210.437-130.758zM574.279 83.708l210.402-130.758c2.102-1.34 4.664-2.136 7.411-2.136 1.162 0 2.291 0.142 3.37 0.411l-0.096-0.020c6.664 1.903 11.461 7.939 11.461 15.096 0 1.382-0.179 2.722-0.515 3.998l0.024-0.109-57.204 243.955c-1.609 6.542-2.532 14.052-2.532 21.777 0 28.434 12.502 53.949 32.309 71.346l0.107 0.092 187.249 163.171c3.004 2.662 4.991 6.413 5.339 10.628l0.004 0.058c0.055 0.489 0.087 1.056 0.087 1.63 0 7.849-5.905 14.32-13.515 15.211l-0.072 0.007-245.771 20.054c-35.791 3.091-65.578 25.922-78.633 57.439l-0.228 0.621-94.675 231.524c-1.515 3.742-4.369 6.677-7.953 8.261l-0.097 0.038c-1.619 0.694-3.503 1.097-5.482 1.097-6.128 0-11.353-3.869-13.364-9.297l-0.032-0.099-94.711-231.524c-13.282-32.137-43.069-54.968-78.511-58.035l-0.35-0.024-245.771-20.054c-3.971-0.332-7.44-2.248-9.812-5.106l-0.019-0.023c-2.329-2.796-3.742-6.425-3.742-10.384 0-4.792 2.071-9.101 5.366-12.079l0.014-0.013 187.249-163.171c19.914-17.489 32.416-43.004 32.416-71.438 0-7.726-0.923-15.236-2.664-22.426l0.133 0.649-57.204-243.955c-0.28-1.135-0.44-2.437-0.44-3.777 0-3.087 0.852-5.976 2.334-8.443l-0.041 0.074c2.503-4.314 7.101-7.168 12.364-7.168 2.737 0 5.295 0.772 7.466 2.11l-0.062-0.035 210.509 130.829c13.898 8.778 30.811 13.988 48.941 13.988s35.042-5.209 49.323-14.213l-0.383 0.225z" />
<glyph unicode="&#xe66b;" glyph-name="comments" horiz-adv-x="1152" d="M1023.564 896h-895.141c-0.009 0-0.020 0-0.032 0-70.909 0-128.391-57.483-128.391-128.391 0-0.011 0-0.022 0-0.033v0.002-639.147c0-0.009 0-0.020 0-0.032 0-70.909 57.483-128.391 128.391-128.391 0.011 0 0.022 0 0.033 0h63.563v-89.855c0-0.026 0-0.058 0-0.089 0-21.022 17.041-38.063 38.063-38.063 5.991 0 11.658 1.384 16.7 3.85l-0.225-0.099 234.027 111.79c16.119 7.926 35.080 12.58 55.123 12.624h487.889c70.871 0 128.333 57.407 128.423 128.256v639.156c0 70.926-57.497 128.423-128.423 128.423v0M1023.564 831.994c35.562-0.036 64.381-28.855 64.417-64.413v-639.15c-0.036-35.562-28.855-64.381-64.413-64.417h-487.909c-30.072-0.047-58.519-6.958-83.872-19.25l1.15 0.503-196.942-94.053v48.794c0 35.35-28.657 64.006-64.006 64.006v0h-63.564c-35.562 0.036-64.381 28.855-64.417 64.413v639.15c0.036 35.562 28.855 64.381 64.413 64.417h0.003zM320 543.997c0 0.019 0 0.041 0 0.063 0 17.64 14.3 31.94 31.94 31.94 0.033 0 0.067 0 0.1 0h447.913c0.002 0 0.004 0 0.006 0 17.675 0 32.003-14.328 32.003-32.003s-14.328-32.003-32.003-32.003c-0.002 0-0.004 0-0.006 0h-447.949c-0.028 0-0.061 0-0.095 0-17.64 0-31.94 14.3-31.94 31.94 0 0.022 0 0.044 0 0.067v-0.003zM320 352.010c0 0.019 0 0.041 0 0.063 0 17.64 14.3 31.94 31.94 31.94 0.033 0 0.067 0 0.1 0h447.913c0.002 0 0.004 0 0.006 0 17.675 0 32.003-14.328 32.003-32.003s-14.328-32.003-32.003-32.003c-0.002 0-0.004 0-0.006 0h-447.949c-0.028 0-0.061 0-0.095 0-17.64 0-31.94 14.3-31.94 31.94 0 0.022 0 0.044 0 0.067v-0.003z" />
<glyph unicode="&#xe66d;" glyph-name="image" d="M256 768c-70.692 0-128-57.308-128-128s57.308-128 128-128c70.692 0 128 57.308 128 128v0c-0.218 70.605-57.395 127.782-127.979 128h-0.021zM256 576c-35.346 0-64 28.654-64 64s28.654 64 64 64c35.346 0 64-28.654 64-64v0c-0.102-35.305-28.695-63.898-63.99-64h-0.010zM896 896h-768c-70.605-0.218-127.782-57.395-128-127.979v-768.021c0.218-70.605 57.395-127.782 127.979-128h768.021c70.605 0.218 127.782 57.395 128 127.979v768.021c-0.218 70.605-57.395 127.782-127.979 128h-0.021zM128-64c-35.305 0.102-63.898 28.695-64 63.99v28.81l252.8 227.2 323.2-320zM960 0c-0.102-35.305-28.695-63.898-63.99-64h-166.41l-233.6 240 272 272 192-192zM960 348.8l-192 195.2-316.8-323.2-131.2 131.2-256-233.6v649.6c0.102 35.305 28.695 63.898 63.99 64h768.010c35.305-0.102 63.898-28.695 64-63.99v-0.010z" />
<glyph unicode="&#xe66e;" glyph-name="management" d="M998.988 491.824l-112.075 37.461q-3.332 8.618-7.163 17.16l52.897 105.717c2.415 4.75 3.83 10.357 3.83 16.295 0 10.088-4.083 19.221-10.687 25.839l-103.418 103.418c-6.607 6.613-15.737 10.703-25.823 10.703-5.945 0-11.558-1.421-16.518-3.942l0.208 0.096-105.755-52.859q-8.503 3.83-17.16 7.124l-37.384 112.114c-4.978 14.652-18.612 25.007-34.664 25.012h-146.396c-16.053-0.005-29.686-10.36-34.588-24.755l-0.076-0.257-37.461-112.075q-8.657-3.371-17.16-7.124l-105.717 52.859c-4.754 2.431-10.37 3.855-16.318 3.855-10.085 0-19.214-4.094-25.815-10.711l-103.42-103.42c-6.603-6.617-10.686-15.751-10.686-25.838 0-5.938 1.415-11.546 3.926-16.504l-0.096 0.209 52.859-105.755q-3.83-8.465-7.124-17.16l-112.114-37.384c-14.652-4.978-25.007-18.612-25.012-34.664v-146.281c0.005-16.053 10.36-29.686 24.755-34.588l0.257-0.076 112.114-37.384q3.371-8.695 7.163-17.198l-52.897-105.717c-2.415-4.75-3.83-10.357-3.83-16.295 0-10.088 4.083-19.221 10.687-25.839l-0.001 0.001 103.342-103.802c6.602-6.617 15.731-10.711 25.815-10.711 5.949 0 11.564 1.424 16.525 3.951l-0.207-0.096 105.755 52.859q8.503-3.83 17.16-7.124l37.384-112.114c4.978-14.652 18.612-25.007 34.664-25.012h146.319c16.060 0.012 29.7 10.362 34.626 24.754l0.077 0.258 37.307 112.075q8.657 3.409 17.16 7.163l105.755-52.859c4.751-2.42 10.361-3.838 16.303-3.838 10.087 0 19.219 4.087 25.831 10.695l103.419 103.419c6.603 6.617 10.686 15.751 10.686 25.838 0 5.938-1.415 11.546-3.926 16.504l0.096-0.209-52.859 105.755q3.83 8.503 7.124 17.16l112.114 37.384c14.652 4.978 25.007 18.612 25.012 34.664v146.588c0 0.016 0 0.035 0 0.054 0 15.986-10.265 29.575-24.564 34.533l-0.257 0.077zM950.879 337.193l-103.84-34.473c-10.862-3.724-19.258-12.12-22.905-22.725l-0.077-0.257c-5.644-16.675-11.575-30.597-18.401-43.987l0.858 1.853c-2.422-4.755-3.841-10.371-3.841-16.317s1.419-11.562 3.937-16.526l-0.096 0.208 48.99-98.018-66.265-66.341-98.018 48.99c-4.755 2.422-10.371 3.841-16.317 3.841s-11.562-1.419-16.526-3.937l0.208 0.096c-11.526-5.957-25.448-11.887-39.821-16.849l-2.312-0.694c-10.852-3.74-19.242-12.13-22.905-22.725l-0.077-0.257-34.473-103.84h-93.766l-34.473 103.84c-3.724 10.862-12.12 19.258-22.725 22.905l-0.257 0.077c-16.675 5.645-30.597 11.575-43.987 18.401l1.854-0.858c-4.755 2.422-10.371 3.841-16.317 3.841s-11.562-1.419-16.526-3.937l0.208 0.096-98.248-48.99-66.15 66.15 49.028 98.018c2.431 4.766 3.856 10.394 3.856 16.356s-1.424 11.59-3.952 16.564l0.096-0.208c-5.964 11.532-11.894 25.454-16.852 39.829l-0.691 2.304c-3.724 10.862-12.12 19.258-22.725 22.905l-0.257 0.077-103.84 34.473v93.69l103.84 34.473c10.862 3.724 19.258 12.12 22.905 22.725l0.077 0.257c5.633 16.596 11.549 30.455 18.358 43.781l-0.853-1.839c2.44 4.77 3.87 10.405 3.87 16.375s-1.43 11.605-3.966 16.582l0.096-0.207-49.028 98.056 66.188 66.418 98.056-49.028c4.768-2.448 10.404-3.883 16.375-3.883s11.606 1.435 16.581 3.979l-0.206-0.096c11.489 5.957 25.348 11.874 39.659 16.819l2.283 0.686c10.862 3.724 19.258 12.12 22.905 22.725l0.077 0.257 34.473 103.84h93.575l34.473-103.84c3.724-10.862 12.12-19.258 22.725-22.905l0.257-0.077c16.674-5.644 30.597-11.574 43.987-18.4l-1.853 0.857c4.759-2.405 10.373-3.814 16.317-3.814s11.559 1.409 16.529 3.911l-0.211-0.096 98.478 49.067 66.15-66.15-49.028-98.018c-2.431-4.766-3.856-10.394-3.856-16.356s1.424-11.59 3.952-16.564l-0.096 0.208c5.964-11.533 11.894-25.455 16.852-39.831l0.691-2.303c3.724-10.862 12.12-19.258 22.725-22.905l0.257-0.077 103.84-34.473v-93.575zM512 567.013c-100.991 0-182.86-81.869-182.86-182.86s81.869-182.86 182.86-182.86c100.991 0 182.86 81.869 182.86 182.86v0c-0.022 100.982-81.878 182.838-182.858 182.86h-0.002zM512 274.453c-60.586 0-109.701 49.115-109.701 109.701s49.115 109.701 109.701 109.701c60.586 0 109.701-49.115 109.701-109.701v0c-0.087-60.551-49.15-109.614-109.692-109.701h-0.008z" />
<glyph unicode="&#xe66f;" glyph-name="pay" horiz-adv-x="1026" d="M983.837 582.637c-79.63 185.618-260.817 313.269-471.817 313.269-282.736 0-511.939-229.203-511.939-511.939s229.203-511.939 511.939-511.939c282.734 0 511.936 229.2 511.939 511.934v0.001c0 0.097 0 0.212 0 0.326 0 71.625-14.755 139.804-41.392 201.663l1.27-3.316zM513.477-56.67c-243.359 0.016-440.634 197.301-440.634 440.662 0 243.371 197.291 440.662 440.662 440.662s440.662-197.291 440.662-440.662c0-0.019 0-0.039 0-0.058v0.002c-0.303-243.247-197.436-440.351-440.665-440.606h-0.025zM656.115 372.281c0.799-0.062 1.731-0.098 2.671-0.098 20.116 0 36.423 16.307 36.423 36.423s-16.307 36.423-36.423 36.423c-0.94 0-1.872-0.036-2.794-0.106l0.123 0.007h-77.469l107.728 161.662c4.284 5.898 6.854 13.282 6.854 21.267 0 20.116-16.307 36.423-36.423 36.423-13.079 0-24.548-6.894-30.971-17.246l-0.090-0.155-115.125-172.757-115.069 172.757c-6.399 11.029-18.152 18.327-31.61 18.327-20.116 0-36.423-16.307-36.423-36.423 0-8.391 2.837-16.119 7.605-22.277l-0.062 0.084 107.756-161.606h-77.637c-18.933-1.434-33.752-17.149-33.752-36.325s14.819-34.891 33.629-36.317l0.123-0.007h109.269v-72.706h-109.269c-19.121-1.224-34.165-17.031-34.165-36.353s15.045-35.129 34.059-36.347l0.107-0.005h109.269v-109.073c0-20.116 16.307-36.423 36.423-36.423s36.423 16.307 36.423 36.423v0 109.017h109.073c19.121 1.224 34.165 17.031 34.165 36.353s-15.045 35.129-34.059 36.347l-0.107 0.005h-109.353v72.846h109.073z" />
<glyph unicode="&#xe670;" glyph-name="reward" horiz-adv-x="1212" d="M861.677 895.726c-100.571-0.057-191.257-42.327-255.309-110.050l-0.154-0.165c-64.121 68.103-154.873 110.511-255.531 110.511-193.677 0-350.683-157.006-350.683-350.683 0-0.104 0-0.208 0-0.312v0.016c2.995-118.128 49.348-224.881 123.666-305.449l-0.293 0.321c40.406-46.349 83.635-88.011 130.215-125.693l1.942-1.521c46.817-38.567 99.076-77.246 153.29-113.215l7.022-4.38 190.371-123.106 190.371 123.106c61.228 40.334 113.488 79.014 163.596 120.216l-3.284-2.62c48.394 39.222 91.534 80.88 130.832 125.974l1.058 1.241c74.098 80.223 120.52 186.975 123.561 304.522l0.012 0.606c-0.247 193.577-157.105 350.436-350.659 350.683h-0.024zM1031.575 288.644c-37.521-42.812-77.63-81.344-120.807-116.23l-1.832-1.432c-44.746-36.887-94.686-73.884-146.491-108.296l-6.707-4.189-149.625-96.555-149.458 96.621c-58.488 38.578-108.407 75.554-156.276 114.929l3.145-2.51c-44.992 36.319-85.073 74.908-121.575 116.703l-0.964 1.127c-62.768 67.226-102.339 156.817-105.556 255.6l-0.016 0.632c0.032 152.021 123.277 275.246 275.303 275.246 92.361 0 174.098-45.482 224.038-115.271l0.566-0.832 30.76-43.418 30.726 43.418c50.517 70.648 132.28 116.148 224.671 116.148 152.055 0 275.325-123.243 275.369-275.287v-0.004c-3.248-99.443-42.759-189.074-105.659-256.639l0.221 0.24zM533.372 177.060c-53.627 35.398-99.352 69.242-143.23 105.254l2.957-2.354c-38.447 30.94-72.701 63.754-103.946 99.277l-0.792 0.918c-5.204 5.747-12.692 9.341-21.020 9.341-15.642 0-28.322-12.68-28.322-28.322 0-6.748 2.36-12.945 6.3-17.811l-0.042 0.053c34.234-39.039 70.826-74.18 110.212-106.001l1.673-1.308c42.423-34.958 89.802-70.106 138.924-102.845l6.426-4.029c4.231-2.658 9.375-4.234 14.887-4.234 15.623 0 28.288 12.665 28.288 28.288 0 9.712-4.895 18.282-12.352 23.376l-0.097 0.063z" />
<glyph unicode="&#xe674;" glyph-name="fill" d="M22.261 384c0 270.475 219.264 489.739 489.739 489.739s489.739-219.264 489.739-489.739c0-270.475-219.264-489.739-489.739-489.739v0c-270.353 0.304-489.435 219.386-489.739 489.71v0.029z" />
<glyph unicode="&#xe675;" glyph-name="folding-r" d="M240.941-63.979l62.963-64.021 461.785 469.245c10.759 11.025 17.396 26.115 17.396 42.755s-6.637 31.73-17.408 42.767l0.012-0.012-461.73 469.245-63.019-63.965 440.909-448.202z" />
<glyph unicode="&#xe677;" glyph-name="search" d="M953.719-128l-240.913 258.833c-66.048-51.507-179.951-111.65-283.546-111.65-0.115 0-0.25 0-0.386 0-118.903 0-226.32 49.177-303.022 128.301l-0.105 0.109c-77.766 80.039-125.713 189.411-125.713 309.982s47.948 229.943 125.817 310.089l-0.103-0.107c76.951 79.237 184.49 128.406 303.514 128.406s226.563-49.169 303.414-128.303l0.099-0.103c77.745-79.95 125.685-189.235 125.685-309.717 0-95.82-30.323-184.558-81.896-257.142l0.926 1.372 246.511-250.948-70.246-79.121zM429.261 804.352c-188.023-2.266-339.573-155.216-339.573-343.563 0-1.112 0.005-2.223 0.016-3.333l-0.001 0.169c-0.009-0.92-0.014-2.007-0.014-3.096 0-188.353 151.545-341.311 339.356-343.594l0.216-0.002c187.994 2.304 339.505 155.24 339.505 343.562 0 1.125-0.005 2.248-0.016 3.37l0.001-0.171c0.009 0.93 0.014 2.029 0.014 3.13 0 188.315-151.515 341.243-339.289 343.526l-0.215 0.002z" />
<glyph unicode="&#xe678;" glyph-name="mine" d="M989.717-128h-60.876c3.051 18.94 4.795 40.775 4.795 63.017 0 162.601-93.172 303.44-229.040 372.042l-2.385 1.092 39.003 48.017c151.505-82.063 252.667-239.84 252.667-421.245 0-22.188-1.513-44.022-4.443-65.406l0.278 2.483zM594.557 366.805c-24.624-7.619-52.985-12.264-82.349-12.812l-0.293-0.004c-0.894 0.007-1.951 0.011-3.009 0.011-231.218 0-418.657-187.439-418.657-418.657 0-22.319 1.747-44.23 5.11-65.605l-0.307 2.368h-60.876c-2.648 18.904-4.16 40.744-4.16 62.937 0 215.404 142.437 397.539 338.262 457.358l3.387 0.89c-78.651 48.31-130.313 133.865-130.313 231.486 0 149.536 121.223 270.76 270.76 270.76s270.76-121.223 270.76-270.76c0-120.113-78.212-221.958-186.485-257.387l-1.914-0.542zM512 835.765c-116.435 0-210.824-94.389-210.824-210.824s94.389-210.824 210.824-210.824c116.435 0 210.824 94.389 210.824 210.824v0c0 116.435-94.389 210.824-210.824 210.824v0z" />
<glyph unicode="&#xe681;" glyph-name="fail" d="M512-114.162c-275.373 0-498.162 222.789-498.162 498.162s222.789 498.162 498.162 498.162 498.162-222.789 498.162-498.162-222.789-498.162-498.162-498.162zM512 854.486c-258.768 0-470.486-211.719-470.486-470.486s211.719-470.486 470.486-470.486 470.486 211.719 470.486 470.486-211.719 470.486-470.486 470.486zM313.040 565.829l19.567 19.567 391.389-391.389-19.567-19.581zM311.282 195.072l391.389 391.376 19.567-19.567-391.389-391.389z" />
<glyph unicode="&#xe682;" glyph-name="success" d="M512-114.162c-275.373 0-498.162 222.789-498.162 498.162s222.789 498.162 498.162 498.162 498.162-222.789 498.162-498.162-222.789-498.162-498.162-498.162zM512 854.486c-258.768 0-470.486-211.719-470.486-470.486s211.719-470.486 470.486-470.486 470.486 211.719 470.486 470.486-211.719 470.486-470.486 470.486zM424.822 183.351l-168.822 175.741 19.373 19.373 150.832-154.984 297.514 300.281 19.373-19.373z" />
</font>
</defs>
</svg>
